<svg xmlns="http://www.w3.org/2000/svg" xmlns:xlink="http://www.w3.org/1999/xlink" contentStyleType="text/css" data-diagram-type="SEQUENCE" height="892px" preserveAspectRatio="none" style="width:1581px;height:892px;background:#FCF8F1;" version="1.1" viewBox="0 0 1581 892" width="1581px" zoomAndPan="magnify"><?plantuml 1.2026.4?><defs/><g><rect fill="#FCF8F1" height="892" style="stroke:none;stroke-width:1;" width="1581" x="0" y="0"/><g class="title" data-source-line="6"><text fill="#2F241E" font-family="Arial" font-size="14" font-weight="700" lengthAdjust="spacing" textLength="333.498" x="620.6885" y="27.9951">Catalogue-backed room request sequence</text></g><rect fill="none" height="570.1328" rx="4" ry="4" style="stroke:#A65443;stroke-width:1.5;" width="1334.2471" x="231.6279" y="222.9922"/><rect fill="none" height="119.3359" rx="4" ry="4" style="stroke:#A65443;stroke-width:1.5;" width="1314.2471" x="241.6279" y="666.7891"/><g class="participant-lifeline" data-entity-uid="part1" data-qualified-name="User" data-source-line="8" id="part1-lifeline"><g><title>User</title><rect fill="#000000" fill-opacity="0.00000" height="691.5313" width="8" x="19.9551" y="118.5938"/><line style="stroke:#7D4434;stroke-width:0.5;stroke-dasharray:5,5;" x1="23" x2="23" y1="118.5938" y2="810.125"/></g></g><g class="participant-lifeline" data-entity-uid="part2" data-qualified-name="Browser" data-source-line="9" id="part2-lifeline"><g><title>Browser</title><rect fill="#000000" fill-opacity="0.00000" height="691.5313" width="8" x="283.1475" y="118.5938"/><line style="stroke:#7D4434;stroke-width:0.5;stroke-dasharray:5,5;" x1="286.6279" x2="286.6279" y1="118.5938" y2="810.125"/></g></g><g class="participant-lifeline" data-entity-uid="part3" data-qualified-name="Page" data-source-line="10" id="part3-lifeline"><g><title>Next.js dynamic</title><rect fill="#000000" fill-opacity="0.00000" height="691.5313" width="8" x="534.165" y="118.5938"/><line style="stroke:#7D4434;stroke-width:0.5;stroke-dasharray:5,5;" x1="537.3452" x2="537.3452" y1="118.5938" y2="810.125"/></g></g><g class="participant-lifeline" data-entity-uid="part4" data-qualified-name="Adapter" data-source-line="11" id="part4-lifeline"><g><title>getBooks</title><rect fill="#000000" fill-opacity="0.00000" height="691.5313" width="8" x="721.9155" y="118.5938"/><line style="stroke:#7D4434;stroke-width:0.5;stroke-dasharray:5,5;" x1="725.3525" x2="725.3525" y1="118.5938" y2="810.125"/></g></g><g class="participant-lifeline" data-entity-uid="part5" data-qualified-name="Neon" data-source-line="12" id="part5-lifeline"><g><title>Neon books</title><rect fill="#000000" fill-opacity="0.00000" height="691.5313" width="8" x="964.8145" y="118.5938"/><line style="stroke:#7D4434;stroke-width:0.5;stroke-dasharray:5,5;" x1="968.6177" x2="968.6177" y1="118.5938" y2="810.125"/></g></g><g class="participant-lifeline" data-entity-uid="part6" data-qualified-name="Controller" data-source-line="13" id="part6-lifeline"><g><title>Client experience</title><rect fill="#000000" fill-opacity="0.00000" height="691.5313" width="8" x="1091.9541" y="118.5938"/><line style="stroke:#7D4434;stroke-width:0.5;stroke-dasharray:5,5;" x1="1095.0112" x2="1095.0112" y1="118.5938" y2="810.125"/></g></g><g class="participant-lifeline" data-entity-uid="part7" data-qualified-name="Scene" data-source-line="14" id="part7-lifeline"><g><title>Dynamic RoomScene</title><rect fill="#000000" fill-opacity="0.00000" height="691.5313" width="8" x="1260.7544" y="118.5938"/><line style="stroke:#7D4434;stroke-width:0.5;stroke-dasharray:5,5;" x1="1264.0684" x2="1264.0684" y1="118.5938" y2="810.125"/></g></g><g class="participant-lifeline" data-entity-uid="part8" data-qualified-name="Canvas" data-source-line="15" id="part8-lifeline"><g><title>React Three Fiber</title><rect fill="#000000" fill-opacity="0.00000" height="691.5313" width="8" x="1472.5688" y="118.5938"/><line style="stroke:#7D4434;stroke-width:0.5;stroke-dasharray:5,5;" x1="1476.2627" x2="1476.2627" y1="118.5938" y2="810.125"/></g></g><g class="participant participant-head" data-entity-uid="part1" data-qualified-name="User" data-source-line="8" id="part1-head"><text fill="#2F241E" font-family="Arial" font-size="14" lengthAdjust="spacing" textLength="31.9102" x="5" y="115.292">User</text><ellipse cx="23.9551" cy="50.7969" fill="#F3D6A6" rx="8" ry="8" style="stroke:#7D4434;stroke-width:0.5;"/><path d="M23.9551,58.7969 L23.9551,85.7969 M10.9551,66.7969 L36.9551,66.7969 M23.9551,85.7969 L10.9551,100.7969 M23.9551,85.7969 L36.9551,100.7969" fill="none" style="stroke:#7D4434;stroke-width:0.5;"/></g><g class="participant participant-tail" data-entity-uid="part1" data-qualified-name="User" data-source-line="8" id="part1-tail"><text fill="#2F241E" font-family="Arial" font-size="14" lengthAdjust="spacing" textLength="31.9102" x="5" y="822.1201">User</text><ellipse cx="23.9551" cy="833.9219" fill="#F3D6A6" rx="8" ry="8" style="stroke:#7D4434;stroke-width:0.5;"/><path d="M23.9551,841.9219 L23.9551,868.9219 M10.9551,849.9219 L36.9551,849.9219 M23.9551,868.9219 L10.9551,883.9219 M23.9551,868.9219 L36.9551,883.9219" fill="none" style="stroke:#7D4434;stroke-width:0.5;"/></g><g class="participant participant-head" data-entity-uid="part2" data-qualified-name="Browser" data-source-line="9" id="part2-head"><rect fill="#EFCF9D" height="30.2969" rx="4" ry="4" style="stroke:#7D4434;stroke-width:0.5;" width="71.0391" x="251.6279" y="87.2969"/><text fill="#2F241E" font-family="Arial" font-size="14" lengthAdjust="spacing" textLength="57.0391" x="258.6279" y="107.292">Browser</text></g><g class="participant participant-tail" data-entity-uid="part2" data-qualified-name="Browser" data-source-line="9" id="part2-tail"><rect fill="#EFCF9D" height="30.2969" rx="4" ry="4" style="stroke:#7D4434;stroke-width:0.5;" width="71.0391" x="251.6279" y="809.125"/><text fill="#2F241E" font-family="Arial" font-size="14" lengthAdjust="spacing" textLength="57.0391" x="258.6279" y="829.1201">Browser</text></g><g class="participant participant-head" data-entity-uid="part3" data-qualified-name="Page" data-source-line="10" id="part3-head"><rect fill="#EFCF9D" height="46.5938" rx="4" ry="4" style="stroke:#7D4434;stroke-width:0.5;" width="145.6396" x="465.3452" y="71"/><text fill="#2F241E" font-family="Arial" font-size="14" lengthAdjust="spacing" textLength="112.793" x="481.7686" y="90.9951">Next.js dynamic</text><text fill="#2F241E" font-family="Arial" font-size="14" lengthAdjust="spacing" textLength="131.6396" x="472.3452" y="107.292">Server Component</text></g><g class="participant participant-tail" data-entity-uid="part3" data-qualified-name="Page" data-source-line="10" id="part3-tail"><rect fill="#EFCF9D" height="46.5938" rx="4" ry="4" style="stroke:#7D4434;stroke-width:0.5;" width="145.6396" x="465.3452" y="809.125"/><text fill="#2F241E" font-family="Arial" font-size="14" lengthAdjust="spacing" textLength="112.793" x="481.7686" y="829.1201">Next.js dynamic</text><text fill="#2F241E" font-family="Arial" font-size="14" lengthAdjust="spacing" textLength="131.6396" x="472.3452" y="845.417">Server Component</text></g><g class="participant participant-head" data-entity-uid="part4" data-qualified-name="Adapter" data-source-line="11" id="part4-head"><rect fill="#EFCF9D" height="30.2969" rx="4" ry="4" style="stroke:#7D4434;stroke-width:0.5;" width="79.126" x="686.3525" y="87.2969"/><text fill="#2F241E" font-family="Arial" font-size="14" lengthAdjust="spacing" textLength="65.126" x="693.3525" y="107.292">getBooks</text></g><g class="participant participant-tail" data-entity-uid="part4" data-qualified-name="Adapter" data-source-line="11" id="part4-tail"><rect fill="#EFCF9D" height="30.2969" rx="4" ry="4" style="stroke:#7D4434;stroke-width:0.5;" width="79.126" x="686.3525" y="809.125"/><text fill="#2F241E" font-family="Arial" font-size="14" lengthAdjust="spacing" textLength="65.126" x="693.3525" y="829.1201">getBooks</text></g><g class="participant participant-head" data-entity-uid="part5" data-qualified-name="Neon" data-source-line="12" id="part5-head"><text fill="#2F241E" font-family="Arial" font-size="14" lengthAdjust="spacing" textLength="82.3936" x="924.6177" y="115.292">Neon books</text><path d="M950.8145,66.2969 C950.8145,56.2969 968.8145,56.2969 968.8145,56.2969 C968.8145,56.2969 986.8145,56.2969 986.8145,66.2969 L986.8145,92.2969 C986.8145,102.2969 968.8145,102.2969 968.8145,102.2969 C968.8145,102.2969 950.8145,102.2969 950.8145,92.2969 L950.8145,66.2969" fill="#F7E5C5" style="stroke:#7D4434;stroke-width:0.5;"/><path d="M950.8145,66.2969 C950.8145,76.2969 968.8145,76.2969 968.8145,76.2969 C968.8145,76.2969 986.8145,76.2969 986.8145,66.2969" fill="none" style="stroke:#7D4434;stroke-width:0.5;"/></g><g class="participant participant-tail" data-entity-uid="part5" data-qualified-name="Neon" data-source-line="12" id="part5-tail"><text fill="#2F241E" font-family="Arial" font-size="14" lengthAdjust="spacing" textLength="82.3936" x="924.6177" y="822.1201">Neon books</text><path d="M950.8145,835.4219 C950.8145,825.4219 968.8145,825.4219 968.8145,825.4219 C968.8145,825.4219 986.8145,825.4219 986.8145,835.4219 L986.8145,861.4219 C986.8145,871.4219 968.8145,871.4219 968.8145,871.4219 C968.8145,871.4219 950.8145,871.4219 950.8145,861.4219 L950.8145,835.4219" fill="#F7E5C5" style="stroke:#7D4434;stroke-width:0.5;"/><path d="M950.8145,835.4219 C950.8145,845.4219 968.8145,845.4219 968.8145,845.4219 C968.8145,845.4219 986.8145,845.4219 986.8145,835.4219" fill="none" style="stroke:#7D4434;stroke-width:0.5;"/></g><g class="participant participant-head" data-entity-uid="part6" data-qualified-name="Controller" data-source-line="13" id="part6-head"><rect fill="#EFCF9D" height="46.5938" rx="4" ry="4" style="stroke:#7D4434;stroke-width:0.5;" width="145.8857" x="1023.0112" y="71"/><text fill="#2F241E" font-family="Arial" font-size="14" lengthAdjust="spacing" textLength="122.8213" x="1034.5435" y="90.9951">Client experience</text><text fill="#2F241E" font-family="Arial" font-size="14" lengthAdjust="spacing" textLength="131.8857" x="1030.0112" y="107.292">Library / MyLibrary</text></g><g class="participant participant-tail" data-entity-uid="part6" data-qualified-name="Controller" data-source-line="13" id="part6-tail"><rect fill="#EFCF9D" height="46.5938" rx="4" ry="4" style="stroke:#7D4434;stroke-width:0.5;" width="145.8857" x="1023.0112" y="809.125"/><text fill="#2F241E" font-family="Arial" font-size="14" lengthAdjust="spacing" textLength="122.8213" x="1034.5435" y="829.1201">Client experience</text><text fill="#2F241E" font-family="Arial" font-size="14" lengthAdjust="spacing" textLength="131.8857" x="1030.0112" y="845.417">Library / MyLibrary</text></g><g class="participant participant-head" data-entity-uid="part7" data-qualified-name="Scene" data-source-line="14" id="part7-head"><rect fill="#EFCF9D" height="46.5938" rx="4" ry="4" style="stroke:#7D4434;stroke-width:0.5;" width="163.3721" x="1183.0684" y="71"/><text fill="#2F241E" font-family="Arial" font-size="14" lengthAdjust="spacing" textLength="149.3721" x="1190.0684" y="90.9951">Dynamic RoomScene</text><text fill="#2F241E" font-family="Arial" font-size="14" lengthAdjust="spacing" textLength="90.877" x="1219.3159" y="107.292">SSR disabled</text></g><g class="participant participant-tail" data-entity-uid="part7" data-qualified-name="Scene" data-source-line="14" id="part7-tail"><rect fill="#EFCF9D" height="46.5938" rx="4" ry="4" style="stroke:#7D4434;stroke-width:0.5;" width="163.3721" x="1183.0684" y="809.125"/><text fill="#2F241E" font-family="Arial" font-size="14" lengthAdjust="spacing" textLength="149.3721" x="1190.0684" y="829.1201">Dynamic RoomScene</text><text fill="#2F241E" font-family="Arial" font-size="14" lengthAdjust="spacing" textLength="90.877" x="1219.3159" y="845.417">SSR disabled</text></g><g class="participant participant-head" data-entity-uid="part8" data-qualified-name="Canvas" data-source-line="15" id="part8-head"><rect fill="#EFCF9D" height="46.5938" rx="4" ry="4" style="stroke:#7D4434;stroke-width:0.5;" width="138.6123" x="1407.2627" y="71"/><text fill="#2F241E" font-family="Arial" font-size="14" lengthAdjust="spacing" textLength="124.6123" x="1414.2627" y="90.9951">React Three Fiber</text><text fill="#2F241E" font-family="Arial" font-size="14" lengthAdjust="spacing" textLength="51.3857" x="1450.876" y="107.292">Canvas</text></g><g class="participant participant-tail" data-entity-uid="part8" data-qualified-name="Canvas" data-source-line="15" id="part8-tail"><rect fill="#EFCF9D" height="46.5938" rx="4" ry="4" style="stroke:#7D4434;stroke-width:0.5;" width="138.6123" x="1407.2627" y="809.125"/><text fill="#2F241E" font-family="Arial" font-size="14" lengthAdjust="spacing" textLength="124.6123" x="1414.2627" y="829.1201">React Three Fiber</text><text fill="#2F241E" font-family="Arial" font-size="14" lengthAdjust="spacing" textLength="51.3857" x="1450.876" y="845.417">Canvas</text></g><g class="message" data-entity-1="part1" data-entity-2="part2" data-source-line="17" id="msg1"><polygon fill="#7D4434" points="275.1475,145.7266,285.1475,149.7266,275.1475,153.7266,279.1475,149.7266" style="stroke:#7D4434;stroke-width:1;stroke-linejoin:miter;stroke-miterlimit:10;"/><line style="stroke:#7D4434;stroke-width:1.2;" x1="23.9551" x2="281.1475" y1="149.7266" y2="149.7266"/><text fill="#2F241E" font-family="Arial" font-size="13" lengthAdjust="spacing" textLength="239.1924" x="30.9551" y="144.6606">Navigate to /collection or /my-library</text></g><g class="message" data-entity-1="part2" data-entity-2="part3" data-source-line="18" id="msg2"><polygon fill="#7D4434" points="526.165,174.8594,536.165,178.8594,526.165,182.8594,530.165,178.8594" style="stroke:#7D4434;stroke-width:1;stroke-linejoin:miter;stroke-miterlimit:10;"/><line style="stroke:#7D4434;stroke-width:1.2;" x1="287.1475" x2="532.165" y1="178.8594" y2="178.8594"/><text fill="#2F241E" font-family="Arial" font-size="13" lengthAdjust="spacing" textLength="64.9937" x="294.1475" y="173.7935">GET route</text></g><g class="message" data-entity-1="part3" data-entity-2="part4" data-source-line="19" id="msg3"><polygon fill="#7D4434" points="713.9155,203.9922,723.9155,207.9922,713.9155,211.9922,717.9155,207.9922" style="stroke:#7D4434;stroke-width:1;stroke-linejoin:miter;stroke-miterlimit:10;"/><line style="stroke:#7D4434;stroke-width:1.2;" x1="538.165" x2="719.9155" y1="207.9922" y2="207.9922"/><text fill="#2F241E" font-family="Arial" font-size="13" lengthAdjust="spacing" textLength="110.0239" x="545.165" y="202.9263">await getBooks()</text></g><path d="M235.6279,222.9922 L296.0708,222.9922 L296.0708,230.125 L286.0708,240.125 L231.6279,240.125 L231.6279,226.9922 A4,4 0 0 1 235.6279,222.9922" fill="#FFF2D9" style="stroke:#A65443;stroke-width:1.5;"/><rect fill="none" height="570.1328" rx="4" ry="4" style="stroke:#A65443;stroke-width:1.5;" width="1334.2471" x="231.6279" y="222.9922"/><text fill="#2F241E" font-family="Arial" font-size="13" font-weight="700" lengthAdjust="spacing" textLength="19.4429" x="246.6279" y="236.0591">alt</text><text fill="#2F241E" font-family="Arial" font-size="11" font-weight="700" lengthAdjust="spacing" textLength="166.332" x="311.0708" y="235.2026">[DATABASE_URL is absent]</text><g class="message" data-entity-1="part4" data-entity-2="part3" data-source-line="22" id="msg4"><polygon fill="#7D4434" points="549.165,257.2578,539.165,261.2578,549.165,265.2578,545.165,261.2578" style="stroke:#7D4434;stroke-width:1;stroke-linejoin:miter;stroke-miterlimit:10;"/><line style="stroke:#7D4434;stroke-width:1.2;stroke-dasharray:2,2;" x1="543.165" x2="724.9155" y1="261.2578" y2="261.2578"/><text fill="#2F241E" font-family="Arial" font-size="13" lengthAdjust="spacing" textLength="163.7505" x="555.165" y="256.1919">throw configuration error</text></g><g class="message" data-entity-1="part3" data-entity-2="part2" data-source-line="23" id="msg5"><polygon fill="#7D4434" points="298.1475,286.3906,288.1475,290.3906,298.1475,294.3906,294.1475,290.3906" style="stroke:#7D4434;stroke-width:1;stroke-linejoin:miter;stroke-miterlimit:10;"/><line style="stroke:#7D4434;stroke-width:1.2;stroke-dasharray:2,2;" x1="292.1475" x2="537.165" y1="290.3906" y2="290.3906"/><text fill="#2F241E" font-family="Arial" font-size="13" lengthAdjust="spacing" textLength="166.6704" x="304.1475" y="285.3247">framework error handling</text></g><line style="stroke:#A65443;stroke-width:1;stroke-dasharray:2,2;" x1="231.6279" x2="1565.875" y1="299.3906" y2="299.3906"/><text fill="#2F241E" font-family="Arial" font-size="11" font-weight="700" lengthAdjust="spacing" textLength="159.2368" x="236.6279" y="309.6011">[connection string exists]</text><g class="message" data-entity-1="part4" data-entity-2="part5" data-source-line="25" id="msg6"><polygon fill="#7D4434" points="956.8145,345.4609,966.8145,349.4609,956.8145,353.4609,960.8145,349.4609" style="stroke:#7D4434;stroke-width:1;stroke-linejoin:miter;stroke-miterlimit:10;"/><line style="stroke:#7D4434;stroke-width:1.2;" x1="725.9155" x2="962.8145" y1="349.4609" y2="349.4609"/><text fill="#2F241E" font-family="Arial" font-size="13" lengthAdjust="spacing" textLength="218.8989" x="732.9155" y="329.2622">SELECT seven catalogue columns</text><text fill="#2F241E" font-family="Arial" font-size="13" lengthAdjust="spacing" textLength="194.543" x="732.9155" y="344.395">ORDER BY serial_number ASC</text></g><g class="message" data-entity-1="part5" data-entity-2="part4" data-source-line="26" id="msg7"><polygon fill="#7D4434" points="736.9155,374.5938,726.9155,378.5938,736.9155,382.5938,732.9155,378.5938" style="stroke:#7D4434;stroke-width:1;stroke-linejoin:miter;stroke-miterlimit:10;"/><line style="stroke:#7D4434;stroke-width:1.2;stroke-dasharray:2,2;" x1="730.9155" x2="967.8145" y1="378.5938" y2="378.5938"/><text fill="#2F241E" font-family="Arial" font-size="13" lengthAdjust="spacing" textLength="70.1162" x="742.9155" y="373.5278">BookRow[]</text></g><g class="message" data-entity-1="part4" data-entity-2="part4" data-source-line="27" id="msg8"><line style="stroke:#7D4434;stroke-width:1.2;" x1="725.9155" x2="767.9155" y1="422.8594" y2="422.8594"/><line style="stroke:#7D4434;stroke-width:1.2;" x1="767.9155" x2="767.9155" y1="422.8594" y2="435.8594"/><line style="stroke:#7D4434;stroke-width:1.2;" x1="726.9155" x2="767.9155" y1="435.8594" y2="435.8594"/><polygon fill="#7D4434" points="736.9155,431.8594,726.9155,435.8594,736.9155,439.8594,732.9155,435.8594" style="stroke:#7D4434;stroke-width:1;stroke-linejoin:miter;stroke-miterlimit:10;"/><text fill="#2F241E" font-family="Arial" font-size="13" lengthAdjust="spacing" textLength="142.7397" x="732.9155" y="402.6606">map snake_case rows</text><text fill="#2F241E" font-family="Arial" font-size="13" lengthAdjust="spacing" textLength="135.0146" x="732.9155" y="417.7935">to camelCase Book[]</text></g><g class="message" data-entity-1="part4" data-entity-2="part3" data-source-line="28" id="msg9"><polygon fill="#7D4434" points="549.165,460.9922,539.165,464.9922,549.165,468.9922,545.165,464.9922" style="stroke:#7D4434;stroke-width:1;stroke-linejoin:miter;stroke-miterlimit:10;"/><line style="stroke:#7D4434;stroke-width:1.2;stroke-dasharray:2,2;" x1="543.165" x2="724.9155" y1="464.9922" y2="464.9922"/><text fill="#2F241E" font-family="Arial" font-size="13" lengthAdjust="spacing" textLength="42.4976" x="555.165" y="459.9263">Book[]</text></g><g class="message" data-entity-1="part3" data-entity-2="part2" data-source-line="29" id="msg10"><polygon fill="#7D4434" points="298.1475,490.125,288.1475,494.125,298.1475,498.125,294.1475,494.125" style="stroke:#7D4434;stroke-width:1;stroke-linejoin:miter;stroke-miterlimit:10;"/><line style="stroke:#7D4434;stroke-width:1.2;stroke-dasharray:2,2;" x1="292.1475" x2="537.165" y1="494.125" y2="494.125"/><text fill="#2F241E" font-family="Arial" font-size="13" lengthAdjust="spacing" textLength="227.0176" x="304.1475" y="489.0591">server output with controller props</text></g><g class="message" data-entity-1="part2" data-entity-2="part6" data-source-line="30" id="msg11"><polygon fill="#7D4434" points="1083.9541,519.2578,1093.9541,523.2578,1083.9541,527.2578,1087.9541,523.2578" style="stroke:#7D4434;stroke-width:1;stroke-linejoin:miter;stroke-miterlimit:10;"/><line style="stroke:#7D4434;stroke-width:1.2;" x1="287.1475" x2="1089.9541" y1="523.2578" y2="523.2578"/><text fill="#2F241E" font-family="Arial" font-size="13" lengthAdjust="spacing" textLength="128.9336" x="294.1475" y="518.1919">hydrate with Book[]</text></g><g class="message" data-entity-1="part6" data-entity-2="part6" data-source-line="31" id="msg12"><line style="stroke:#7D4434;stroke-width:1.2;" x1="1095.9541" x2="1137.9541" y1="567.5234" y2="567.5234"/><line style="stroke:#7D4434;stroke-width:1.2;" x1="1137.9541" x2="1137.9541" y1="567.5234" y2="580.5234"/><line style="stroke:#7D4434;stroke-width:1.2;" x1="1096.9541" x2="1137.9541" y1="580.5234" y2="580.5234"/><polygon fill="#7D4434" points="1106.9541,576.5234,1096.9541,580.5234,1106.9541,584.5234,1102.9541,580.5234" style="stroke:#7D4434;stroke-width:1;stroke-linejoin:miter;stroke-miterlimit:10;"/><text fill="#2F241E" font-family="Arial" font-size="13" lengthAdjust="spacing" textLength="144.7646" x="1102.9541" y="547.3247">derive filters, lists and</text><text fill="#2F241E" font-family="Arial" font-size="13" lengthAdjust="spacing" textLength="154.8003" x="1102.9541" y="562.4575">visit-scoped initial state</text></g><g class="message" data-entity-1="part6" data-entity-2="part7" data-source-line="32" id="msg13"><polygon fill="#7D4434" points="1252.7544,605.6563,1262.7544,609.6563,1252.7544,613.6563,1256.7544,609.6563" style="stroke:#7D4434;stroke-width:1;stroke-linejoin:miter;stroke-miterlimit:10;"/><line style="stroke:#7D4434;stroke-width:1.2;" x1="1095.9541" x2="1258.7544" y1="609.6563" y2="609.6563"/><text fill="#2F241E" font-family="Arial" font-size="13" lengthAdjust="spacing" textLength="111.1475" x="1102.9541" y="604.5903">load client chunk</text></g><g class="message" data-entity-1="part7" data-entity-2="part7" data-source-line="33" id="msg14"><line style="stroke:#7D4434;stroke-width:1.2;" x1="1264.7544" x2="1306.7544" y1="638.7891" y2="638.7891"/><line style="stroke:#7D4434;stroke-width:1.2;" x1="1306.7544" x2="1306.7544" y1="638.7891" y2="651.7891"/><line style="stroke:#7D4434;stroke-width:1.2;" x1="1265.7544" x2="1306.7544" y1="651.7891" y2="651.7891"/><polygon fill="#7D4434" points="1275.7544,647.7891,1265.7544,651.7891,1275.7544,655.7891,1271.7544,651.7891" style="stroke:#7D4434;stroke-width:1;stroke-linejoin:miter;stroke-miterlimit:10;"/><text fill="#2F241E" font-family="Arial" font-size="13" lengthAdjust="spacing" textLength="142.8604" x="1271.7544" y="633.7231">test WebGL capability</text></g><path d="M245.6279,666.7891 L306.0708,666.7891 L306.0708,673.9219 L296.0708,683.9219 L241.6279,683.9219 L241.6279,670.7891 A4,4 0 0 1 245.6279,666.7891" fill="#FFF2D9" style="stroke:#A65443;stroke-width:1.5;"/><rect fill="none" height="119.3359" rx="4" ry="4" style="stroke:#A65443;stroke-width:1.5;" width="1314.2471" x="241.6279" y="666.7891"/><text fill="#2F241E" font-family="Arial" font-size="13" font-weight="700" lengthAdjust="spacing" textLength="19.4429" x="256.6279" y="679.856">alt</text><text fill="#2F241E" font-family="Arial" font-size="11" font-weight="700" lengthAdjust="spacing" textLength="113.4751" x="321.0708" y="678.9995">[WebGL available]</text><g class="message" data-entity-1="part7" data-entity-2="part8" data-source-line="35" id="msg15"><polygon fill="#7D4434" points="1464.5688,701.0547,1474.5688,705.0547,1464.5688,709.0547,1468.5688,705.0547" style="stroke:#7D4434;stroke-width:1;stroke-linejoin:miter;stroke-miterlimit:10;"/><line style="stroke:#7D4434;stroke-width:1.2;" x1="1264.7544" x2="1470.5688" y1="705.0547" y2="705.0547"/><text fill="#2F241E" font-family="Arial" font-size="13" lengthAdjust="spacing" textLength="187.8145" x="1271.7544" y="699.9888">mount demand-driven scene</text></g><g class="message" data-entity-1="part8" data-entity-2="part2" data-source-line="36" id="msg16"><polygon fill="#7D4434" points="298.1475,730.1875,288.1475,734.1875,298.1475,738.1875,294.1475,734.1875" style="stroke:#7D4434;stroke-width:1;stroke-linejoin:miter;stroke-miterlimit:10;"/><line style="stroke:#7D4434;stroke-width:1.2;stroke-dasharray:2,2;" x1="292.1475" x2="1475.5688" y1="734.1875" y2="734.1875"/><text fill="#2F241E" font-family="Arial" font-size="13" lengthAdjust="spacing" textLength="81.2246" x="304.1475" y="729.1216">render room</text></g><line style="stroke:#A65443;stroke-width:1;stroke-dasharray:2,2;" x1="241.6279" x2="1555.875" y1="743.1875" y2="743.1875"/><text fill="#2F241E" font-family="Arial" font-size="11" font-weight="700" lengthAdjust="spacing" textLength="72.7783" x="246.6279" y="753.3979">[no WebGL]</text><g class="message" data-entity-1="part6" data-entity-2="part2" data-source-line="38" id="msg17"><polygon fill="#7D4434" points="298.1475,774.125,288.1475,778.125,298.1475,782.125,294.1475,778.125" style="stroke:#7D4434;stroke-width:1;stroke-linejoin:miter;stroke-miterlimit:10;"/><line style="stroke:#7D4434;stroke-width:1.2;stroke-dasharray:2,2;" x1="292.1475" x2="1094.9541" y1="778.125" y2="778.125"/><text fill="#2F241E" font-family="Arial" font-size="13" lengthAdjust="spacing" textLength="133.561" x="304.1475" y="773.0591">render DOM fallback</text></g><?plantuml-src RLJ1Rjim3BtxAxXUsW9BS--XGEfalQJjaAGOXcK8Q9c9jSYI9ybEy_UZvCInknw2o2JV8_L8wXfcZSn92xe7PyKOgseiZ58al3HwNE6Exhnx1zHvvo-F8oKpY_RO-PFh3pmvUXndnkmTk-7caKyBSuWqE_BXqzqEG9dn1T1xHLO60mYZlGs5M7SD-L5ZAGKiZ2cNWZI1B2jZcJaG_g3iQGwY8B5toHUfXQfpWeqlgAGxMPSgIRpqYY3befJPrJJAKEmf1yjyOEblJSw32_-SEabGU6FXpP5DAhHU2bcXzd3rQCs1ZLU03axdOS0BlVkxF-vSxreloJPa8JLShYRj8_GxYpR4dIM9xacEbMVc8666ZWAjqP1r0U5pY4yLY-PxygtrlEqGZE7vU3f7SDhfEgIOVfIOYryk89SECqLvn4Rx4BOW5WjMXIM2Rp8ZkzOfwWRRIjjZaWGfOVHm5WtkuGKRkKDFu0tq1WvOzzvy9MS0OuDg37oQhRXjjQSa6jXnqejzU43fk_cwkULEAW_JoMhoE5dEDc-BEKWUcSonM0bqmD65tHUSCCpULkvgYx4aijPO3c_p3MwnjLZImTXz6mG5ZwEIUfUGSd64zUbQpbisSuEaywwV-Y5sawcMi_aiNV4GDgH1d0ULELHTQhVMhulfR06FFpd2IbGRNPUiDaoMATD5Zj50YzF6_Vezp7O9AB42ft5F6n66BDnfhRaRWg-aqc0A54FyHQZEzuaghXrwRb9LUpX8NkpBDaDbJHKawBNsCfECBewv3OCHSLsQNiX7GCw2D0HRgRX6znLKq3Wy36lTI2Vzo0bJyR9BBJqhnxrW-lyessVb7fJ174IxJwAezPuZMrylo8VtulJiO8MPLD8VEJ2CMsl61gKAcyFM7a6x445zKtE2d4gkSvI72_2GnFKAyQUmeQoMD5yrlbaS52TCcpPT2-hTvpFWzFKPjgXKUFi2WSuJ_lq3?></g></svg>