<svg xmlns="http://www.w3.org/2000/svg" xmlns:xlink="http://www.w3.org/1999/xlink" contentStyleType="text/css" data-diagram-type="ACTIVITY" height="655px" preserveAspectRatio="none" style="width:846px;height:655px;background:#FCF8F1;" version="1.1" viewBox="0 0 846 655" width="846px" zoomAndPan="magnify"><?plantuml 1.2026.4?><defs/><g><rect fill="#FCF8F1" height="655" style="stroke:none;stroke-width:1;" width="846" x="0" y="0"/><g class="title" data-source-line="6"><text fill="#2F241E" font-family="Arial" font-size="14" font-weight="700" lengthAdjust="spacing" textLength="186.2246" x="329.3457" y="32.9951">My Library activity flow</text></g><ellipse cx="500.2002" cy="62.2969" fill="#A65443" rx="10" ry="10" style="stroke:#222222;stroke-width:1;"/><rect fill="#FFF9EF" height="33.9688" rx="4" ry="4" style="stroke:#7D4434;stroke-width:0.5;" width="119.0938" x="440.6533" y="92.2969"/><text fill="#2F241E" font-family="Arial" font-size="12" lengthAdjust="spacing" textLength="99.0938" x="450.6533" y="113.4355">Open My Library</text><rect fill="#FFF9EF" height="33.9688" rx="4" ry="4" style="stroke:#7D4434;stroke-width:0.5;" width="165.3125" x="417.5439" y="146.2656"/><text fill="#2F241E" font-family="Arial" font-size="12" lengthAdjust="spacing" textLength="145.3125" x="427.5439" y="167.4043">Choose Owner or Visitor</text><polygon fill="#F3D6A6" points="479.3228,200.2344,521.0776,200.2344,533.0776,212.2344,521.0776,224.2344,479.3228,224.2344,467.3228,212.2344,479.3228,200.2344" style="stroke:#7D4434;stroke-width:0.5;stroke-linejoin:miter;stroke-miterlimit:10;"/><text fill="#2F241E" font-family="Arial" font-size="11" lengthAdjust="spacing" textLength="41.7549" x="479.3228" y="216.0425">Owner?</text><text fill="#2F241E" font-family="Arial" font-size="11" lengthAdjust="spacing" textLength="19.0083" x="448.3145" y="209.6401">yes</text><text fill="#2F241E" font-family="Arial" font-size="11" lengthAdjust="spacing" textLength="34.9336" x="533.0776" y="209.6401">Visitor</text><rect fill="#FFF9EF" height="33.9688" rx="4" ry="4" style="stroke:#7D4434;stroke-width:0.5;" width="217.1328" x="186.9111" y="234.2344"/><text fill="#2F241E" font-family="Arial" font-size="12" lengthAdjust="spacing" textLength="197.1328" x="196.9111" y="255.373">Explore an empty personal room</text><polygon fill="#F3D6A6" points="244.5461,288.2031,346.4089,288.2031,358.4089,300.2031,346.4089,312.2031,244.5461,312.2031,232.5461,300.2031,244.5461,288.2031" style="stroke:#7D4434;stroke-width:0.5;stroke-linejoin:miter;stroke-miterlimit:10;"/><text fill="#2F241E" font-family="Arial" font-size="11" lengthAdjust="spacing" textLength="101.8628" x="244.5461" y="304.0112">Choose an activity</text><text fill="#2F241E" font-family="Arial" font-size="11" lengthAdjust="spacing" textLength="33.1074" x="199.4387" y="297.6089">Books</text><text fill="#2F241E" font-family="Arial" font-size="11" lengthAdjust="spacing" textLength="62.7505" x="358.4089" y="297.6089">Personalize</text><rect fill="#FFF9EF" height="33.9688" rx="4" ry="4" style="stroke:#7D4434;stroke-width:0.5;" width="150.5703" x="80.96" y="322.2031"/><text fill="#2F241E" font-family="Arial" font-size="12" lengthAdjust="spacing" textLength="130.5703" x="90.96" y="343.3418">Browse the catalogue</text><rect fill="#FFF9EF" height="33.9688" rx="4" ry="4" style="stroke:#7D4434;stroke-width:0.5;" width="280.4902" x="16" y="391.1719"/><text fill="#2F241E" font-family="Arial" font-size="12" lengthAdjust="spacing" textLength="260.4902" x="26" y="412.3105">Add a book or manage its reading progress</text><rect fill="#FFF9EF" height="33.9688" rx="4" ry="4" style="stroke:#7D4434;stroke-width:0.5;" width="150.0957" x="81.1973" y="445.1406"/><text fill="#2F241E" font-family="Arial" font-size="12" lengthAdjust="spacing" textLength="130.0957" x="91.1973" y="466.2793">Write or edit a review</text><rect fill="#FFF9EF" height="33.9688" rx="4" ry="4" style="stroke:#7D4434;stroke-width:0.5;" width="236.4395" x="316.4902" y="322.2031"/><text fill="#2F241E" font-family="Arial" font-size="12" lengthAdjust="spacing" textLength="216.4395" x="326.4902" y="343.3418">Choose the framed photo or flowers</text><polygon fill="#F3D6A6" points="295.4775,485.1094,307.4775,497.1094,295.4775,509.1094,283.4775,497.1094,295.4775,485.1094" style="stroke:#7D4434;stroke-width:0.5;stroke-linejoin:miter;stroke-miterlimit:10;"/><rect fill="#FFF9EF" height="33.9688" rx="4" ry="4" style="stroke:#7D4434;stroke-width:0.5;" width="243.9863" x="582.9297" y="234.2344"/><text fill="#2F241E" font-family="Arial" font-size="12" lengthAdjust="spacing" textLength="223.9863" x="592.9297" y="255.373">Explore the populated example room</text><rect fill="#FFF9EF" height="33.9688" rx="4" ry="4" style="stroke:#7D4434;stroke-width:0.5;" width="101.252" x="654.2969" y="288.2031"/><text fill="#2F241E" font-family="Arial" font-size="12" lengthAdjust="spacing" textLength="81.252" x="664.2969" y="309.3418">Select a book</text><rect fill="#FFF9EF" height="33.9688" rx="4" ry="4" style="stroke:#7D4434;stroke-width:0.5;" width="238.4199" x="585.7129" y="357.1719"/><text fill="#2F241E" font-family="Arial" font-size="12" lengthAdjust="spacing" textLength="218.4199" x="595.7129" y="378.3105">Read its details and example review</text><polygon fill="#F3D6A6" points="500.2002,515.1094,512.2002,527.1094,500.2002,539.1094,488.2002,527.1094,500.2002,515.1094" style="stroke:#7D4434;stroke-width:0.5;stroke-linejoin:miter;stroke-miterlimit:10;"/><rect fill="#FFF9EF" height="33.9688" rx="4" ry="4" style="stroke:#7D4434;stroke-width:0.5;" width="186.5" x="406.9502" y="559.1094"/><text fill="#2F241E" font-family="Arial" font-size="12" lengthAdjust="spacing" textLength="166.5" x="416.9502" y="580.248">Continue exploring or leave</text><ellipse cx="500.2002" cy="624.0781" fill="none" rx="11" ry="11" style="stroke:#222222;stroke-width:1;"/><ellipse cx="500.2002" cy="624.0781" fill="#222222" rx="6" ry="6" style="stroke:#222222;stroke-width:1;"/><line style="stroke:#7D4434;stroke-width:1.2;" x1="500.2002" x2="500.2002" y1="72.2969" y2="92.2969"/><polygon fill="#7D4434" points="496.2002,82.2969,500.2002,92.2969,504.2002,82.2969,500.2002,86.2969" style="stroke:#7D4434;stroke-width:1;stroke-linejoin:miter;stroke-miterlimit:10;"/><line style="stroke:#7D4434;stroke-width:1.2;" x1="500.2002" x2="500.2002" y1="126.2656" y2="146.2656"/><polygon fill="#7D4434" points="496.2002,136.2656,500.2002,146.2656,504.2002,136.2656,500.2002,140.2656" style="stroke:#7D4434;stroke-width:1;stroke-linejoin:miter;stroke-miterlimit:10;"/><line style="stroke:#7D4434;stroke-width:1.2;" x1="156.2451" x2="156.2451" y1="356.1719" y2="391.1719"/><polygon fill="#7D4434" points="152.2451,381.1719,156.2451,391.1719,160.2451,381.1719,156.2451,385.1719" style="stroke:#7D4434;stroke-width:1;stroke-linejoin:miter;stroke-miterlimit:10;"/><line style="stroke:#7D4434;stroke-width:1.2;" x1="156.2451" x2="156.2451" y1="425.1406" y2="445.1406"/><polygon fill="#7D4434" points="152.2451,435.1406,156.2451,445.1406,160.2451,435.1406,156.2451,439.1406" style="stroke:#7D4434;stroke-width:1;stroke-linejoin:miter;stroke-miterlimit:10;"/><line style="stroke:#7D4434;stroke-width:1.2;" x1="232.5461" x2="156.2451" y1="300.2031" y2="300.2031"/><line style="stroke:#7D4434;stroke-width:1.2;" x1="156.2451" x2="156.2451" y1="300.2031" y2="322.2031"/><polygon fill="#7D4434" points="152.2451,312.2031,156.2451,322.2031,160.2451,312.2031,156.2451,316.2031" style="stroke:#7D4434;stroke-width:1;stroke-linejoin:miter;stroke-miterlimit:10;"/><line style="stroke:#7D4434;stroke-width:1.2;" x1="358.4089" x2="434.71" y1="300.2031" y2="300.2031"/><line style="stroke:#7D4434;stroke-width:1.2;" x1="434.71" x2="434.71" y1="300.2031" y2="322.2031"/><polygon fill="#7D4434" points="430.71,312.2031,434.71,322.2031,438.71,312.2031,434.71,316.2031" style="stroke:#7D4434;stroke-width:1;stroke-linejoin:miter;stroke-miterlimit:10;"/><line style="stroke:#7D4434;stroke-width:1.2;" x1="156.2451" x2="156.2451" y1="479.1094" y2="497.1094"/><line style="stroke:#7D4434;stroke-width:1.2;" x1="156.2451" x2="283.4775" y1="497.1094" y2="497.1094"/><polygon fill="#7D4434" points="273.4775,493.1094,283.4775,497.1094,273.4775,501.1094,277.4775,497.1094" style="stroke:#7D4434;stroke-width:1;stroke-linejoin:miter;stroke-miterlimit:10;"/><line style="stroke:#7D4434;stroke-width:1.2;" x1="434.71" x2="434.71" y1="356.1719" y2="497.1094"/><line style="stroke:#7D4434;stroke-width:1.2;" x1="434.71" x2="307.4775" y1="497.1094" y2="497.1094"/><polygon fill="#7D4434" points="317.4775,493.1094,307.4775,497.1094,317.4775,501.1094,313.4775,497.1094" style="stroke:#7D4434;stroke-width:1;stroke-linejoin:miter;stroke-miterlimit:10;"/><line style="stroke:#7D4434;stroke-width:1.2;" x1="295.4775" x2="295.4775" y1="268.2031" y2="288.2031"/><polygon fill="#7D4434" points="291.4775,278.2031,295.4775,288.2031,299.4775,278.2031,295.4775,282.2031" style="stroke:#7D4434;stroke-width:1;stroke-linejoin:miter;stroke-miterlimit:10;"/><line style="stroke:#7D4434;stroke-width:1.2;" x1="704.9229" x2="704.9229" y1="268.2031" y2="288.2031"/><polygon fill="#7D4434" points="700.9229,278.2031,704.9229,288.2031,708.9229,278.2031,704.9229,282.2031" style="stroke:#7D4434;stroke-width:1;stroke-linejoin:miter;stroke-miterlimit:10;"/><line style="stroke:#7D4434;stroke-width:1.2;" x1="704.9229" x2="704.9229" y1="322.1719" y2="357.1719"/><polygon fill="#7D4434" points="700.9229,347.1719,704.9229,357.1719,708.9229,347.1719,704.9229,351.1719" style="stroke:#7D4434;stroke-width:1;stroke-linejoin:miter;stroke-miterlimit:10;"/><line style="stroke:#7D4434;stroke-width:1.2;" x1="467.3228" x2="295.4775" y1="212.2344" y2="212.2344"/><line style="stroke:#7D4434;stroke-width:1.2;" x1="295.4775" x2="295.4775" y1="212.2344" y2="234.2344"/><polygon fill="#7D4434" points="291.4775,224.2344,295.4775,234.2344,299.4775,224.2344,295.4775,228.2344" style="stroke:#7D4434;stroke-width:1;stroke-linejoin:miter;stroke-miterlimit:10;"/><line style="stroke:#7D4434;stroke-width:1.2;" x1="533.0776" x2="704.9229" y1="212.2344" y2="212.2344"/><line style="stroke:#7D4434;stroke-width:1.2;" x1="704.9229" x2="704.9229" y1="212.2344" y2="234.2344"/><polygon fill="#7D4434" points="700.9229,224.2344,704.9229,234.2344,708.9229,224.2344,704.9229,228.2344" style="stroke:#7D4434;stroke-width:1;stroke-linejoin:miter;stroke-miterlimit:10;"/><line style="stroke:#7D4434;stroke-width:1.2;" x1="295.4775" x2="295.4775" y1="509.1094" y2="527.1094"/><line style="stroke:#7D4434;stroke-width:1.2;" x1="295.4775" x2="488.2002" y1="527.1094" y2="527.1094"/><polygon fill="#7D4434" points="478.2002,523.1094,488.2002,527.1094,478.2002,531.1094,482.2002,527.1094" style="stroke:#7D4434;stroke-width:1;stroke-linejoin:miter;stroke-miterlimit:10;"/><line style="stroke:#7D4434;stroke-width:1.2;" x1="704.9229" x2="704.9229" y1="391.1406" y2="527.1094"/><line style="stroke:#7D4434;stroke-width:1.2;" x1="704.9229" x2="512.2002" y1="527.1094" y2="527.1094"/><polygon fill="#7D4434" points="522.2002,523.1094,512.2002,527.1094,522.2002,531.1094,518.2002,527.1094" style="stroke:#7D4434;stroke-width:1;stroke-linejoin:miter;stroke-miterlimit:10;"/><line style="stroke:#7D4434;stroke-width:1.2;" x1="500.2002" x2="500.2002" y1="180.2344" y2="200.2344"/><polygon fill="#7D4434" points="496.2002,190.2344,500.2002,200.2344,504.2002,190.2344,500.2002,194.2344" style="stroke:#7D4434;stroke-width:1;stroke-linejoin:miter;stroke-miterlimit:10;"/><line style="stroke:#7D4434;stroke-width:1.2;" x1="500.2002" x2="500.2002" y1="539.1094" y2="559.1094"/><polygon fill="#7D4434" points="496.2002,549.1094,500.2002,559.1094,504.2002,549.1094,500.2002,553.1094" style="stroke:#7D4434;stroke-width:1;stroke-linejoin:miter;stroke-miterlimit:10;"/><line style="stroke:#7D4434;stroke-width:1.2;" x1="500.2002" x2="500.2002" y1="593.0781" y2="613.0781"/><polygon fill="#7D4434" points="496.2002,603.0781,500.2002,613.0781,504.2002,603.0781,500.2002,607.0781" style="stroke:#7D4434;stroke-width:1;stroke-linejoin:miter;stroke-miterlimit:10;"/><?plantuml-src ZLBDRjim3BxhATXJ7Q1hxivXM8VUMgHeY-qug1RZ49L5GQATU4y_obQARQSUJNs_fA_XVYA7eSCMSkgsDiRjC7_nz9PichVHzdWh-GpDu_ompfvqj37N__7m735H-SxAlz0_IAl6H9c4KvtTG7TaplZC7c-08uPNcteKiC71C8eLuW17_VAOycSjuv65zx5mixf2imoA5IbmOwueT7vq2B_aY0FUqZXuOuJ48ppEKBE1xOGcaXaEda_6PB59JBlNa7-XTgRzlbI0_IbW0axmOwsuCuOEq2pZhnjGgm3DNFm1sljpz9nGUm8EKJsqH-PWFIJcOQUGmgtA2hfakUZSCRylIgfrb_YaA7s0pehrt8-uMv--EGSMtXHSWWqswE60T2K9hQFGGqpS9yovudyc4YnGTAH7KDX4U2gFwDMYUQefwJTMyngnc1-I7T31kcpLA6jJ_C8EZWvcrQZh-MSDXHuvZjwAAk3P3b5lSLb5-u8UEwbDbicpvb-AE1HBFYy_p0UlfbvTzK0SXCA82YXsfRV6ysWdtLCMZdy0?></g></svg>