<svg xmlns="http://www.w3.org/2000/svg" xmlns:xlink="http://www.w3.org/1999/xlink" contentStyleType="text/css" data-diagram-type="DESCRIPTION" height="1114px" preserveAspectRatio="none" style="width:478px;height:1114px;background:#FCF8F1;" version="1.1" viewBox="0 0 478 1114" width="478px" zoomAndPan="magnify"><?plantuml 1.2026.4?><defs/><g><rect fill="#FCF8F1" height="1114" style="stroke:none;stroke-width:1;" width="478" x="0" y="0"/><g class="title" data-source-line="7"><text fill="#2F241E" font-family="Arial" font-size="14" font-weight="700" lengthAdjust="spacing" textLength="219.9873" x="125.7226" y="22.9951">Current roles and use cases</text></g><!--cluster Digital SingLit Bookshelf PoC--><g class="cluster" data-qualified-name="Digital SingLit Bookshelf PoC" data-source-line="14" id="ent0004"><rect fill="#FFF9EF" height="986" rx="4" ry="4" style="stroke:#A65443;stroke-width:1;" width="246" x="179.1" y="114.9969"/><text fill="#2F241E" font-family="Arial" font-size="14" font-weight="700" lengthAdjust="spacing" textLength="230.1387" x="187.0307" y="129.992">Digital SingLit Bookshelf PoC</text></g><!--entity Filter--><g class="entity" data-qualified-name="Digital SingLit Bookshelf PoC.Filter" data-source-line="15" id="ent0005"><ellipse cx="301.5991" cy="258.9958" fill="#FFF9EF" rx="78.4491" ry="24.2789" style="stroke:#A65443;stroke-width:0.5;"/><text fill="#2F241E" font-family="Arial" font-size="14" lengthAdjust="spacing" textLength="115.5684" x="243.815" y="258.1104">Filter the shared</text><text fill="#2F241E" font-family="Arial" font-size="14" lengthAdjust="spacing" textLength="69.1729" x="267.0127" y="274.4073">catalogue</text></g><!--entity Explore--><g class="entity" data-qualified-name="Digital SingLit Bookshelf PoC.Explore" data-source-line="16" id="ent0006"><ellipse cx="301.6016" cy="174.9935" fill="#FFF9EF" rx="79.9916" ry="24.9266" style="stroke:#A65443;stroke-width:0.5;"/><text fill="#2F241E" font-family="Arial" font-size="14" lengthAdjust="spacing" textLength="114.4473" x="244.3779" y="173.1211">Look around the</text><text fill="#2F241E" font-family="Arial" font-size="14" lengthAdjust="spacing" textLength="88.6895" x="257.2568" y="189.4179">SingLit room</text></g><!--entity Inspect--><g class="entity" data-qualified-name="Digital SingLit Bookshelf PoC.Inspect" data-source-line="17" id="ent0007"><ellipse cx="301.6042" cy="508.0017" fill="#FFF9EF" rx="84.2742" ry="19.2548" style="stroke:#A65443;stroke-width:0.5;"/><text fill="#2F241E" font-family="Arial" font-size="14" lengthAdjust="spacing" textLength="140.6494" x="231.2795" y="512.6501">Inspect book details</text></g><!--entity Table--><g class="entity" data-qualified-name="Digital SingLit Bookshelf PoC.Table" data-source-line="18" id="ent0008"><ellipse cx="301.6013" cy="428.9953" fill="#FFF9EF" rx="101.5213" ry="24.6385" style="stroke:#A65443;stroke-width:0.5;"/><text fill="#2F241E" font-family="Arial" font-size="14" lengthAdjust="spacing" textLength="148.4014" x="227.4006" y="427.5572">Move books between</text><text fill="#2F241E" font-family="Arial" font-size="14" lengthAdjust="spacing" textLength="104.2959" x="249.4534" y="443.8541">shelf and table</text></g><!--entity QR--><g class="entity" data-qualified-name="Digital SingLit Bookshelf PoC.QR" data-source-line="19" id="ent0009"><ellipse cx="301.5978" cy="343.993" fill="#FFF9EF" rx="80.5078" ry="25.6861" style="stroke:#A65443;stroke-width:0.5;"/><text fill="#2F241E" font-family="Arial" font-size="14" lengthAdjust="spacing" textLength="111.3574" x="245.9191" y="341.0079">Display the NLB</text><text fill="#2F241E" font-family="Arial" font-size="14" lengthAdjust="spacing" textLength="104.084" x="249.5558" y="357.3047">mobile-app QR</text></g><!--entity ChooseRole--><g class="entity" data-qualified-name="Digital SingLit Bookshelf PoC.ChooseRole" data-source-line="21" id="ent0010"><ellipse cx="301.6043" cy="901.9933" fill="#FFF9EF" rx="98.9843" ry="23.4465" style="stroke:#A65443;stroke-width:0.5;"/><text fill="#2F241E" font-family="Arial" font-size="14" lengthAdjust="spacing" textLength="153.0088" x="225.0999" y="902.4423">Choose a visit-scoped</text><text fill="#2F241E" font-family="Arial" font-size="14" lengthAdjust="spacing" textLength="26.8242" x="288.1922" y="918.7392">role</text></g><!--entity BrowsePersonal--><g class="entity" data-qualified-name="Digital SingLit Bookshelf PoC.BrowsePersonal" data-source-line="22" id="ent0011"><ellipse cx="301.6049" cy="983.9988" fill="#FFF9EF" rx="84.9549" ry="23.6719" style="stroke:#A65443;stroke-width:0.5;"/><text fill="#2F241E" font-family="Arial" font-size="14" lengthAdjust="spacing" textLength="129.2197" x="236.995" y="984.078">Browse a personal</text><text fill="#2F241E" font-family="Arial" font-size="14" lengthAdjust="spacing" textLength="45.042" x="279.0839" y="1000.3748">library</text></g><!--entity BuildList--><g class="entity" data-qualified-name="Digital SingLit Bookshelf PoC.BuildList" data-source-line="23" id="ent0012"><ellipse cx="301.5984" cy="664.9946" fill="#FFF9EF" rx="80.1884" ry="18.4377" style="stroke:#A65443;stroke-width:0.5;"/><text fill="#2F241E" font-family="Arial" font-size="14" lengthAdjust="spacing" textLength="131.1201" x="236.0383" y="669.643">Build a reading list</text></g><!--entity MoveState--><g class="entity" data-qualified-name="Digital SingLit Bookshelf PoC.MoveState" data-source-line="24" id="ent0013"><ellipse cx="301.6036" cy="586.9973" fill="#FFF9EF" rx="101.4136" ry="24.5404" style="stroke:#A65443;stroke-width:0.5;"/><text fill="#2F241E" font-family="Arial" font-size="14" lengthAdjust="spacing" textLength="148.9141" x="227.1466" y="585.7087">Move a book through</text><text fill="#2F241E" font-family="Arial" font-size="14" lengthAdjust="spacing" textLength="100.6934" x="251.257" y="602.0055">reading states</text></g><!--entity Review--><g class="entity" data-qualified-name="Digital SingLit Bookshelf PoC.Review" data-source-line="25" id="ent0014"><ellipse cx="301.5989" cy="823.9987" fill="#FFF9EF" rx="84.6589" ry="19.3318" style="stroke:#A65443;stroke-width:0.5;"/><text fill="#2F241E" font-family="Arial" font-size="14" lengthAdjust="spacing" textLength="141.5381" x="230.8299" y="828.6471">Add or edit a review</text></g><!--entity Personalize--><g class="entity" data-qualified-name="Digital SingLit Bookshelf PoC.Personalize" data-source-line="26" id="ent0015"><ellipse cx="301.5998" cy="743.9989" fill="#FFF9EF" rx="96.3898" ry="25.722" style="stroke:#A65443;stroke-width:0.5;"/><text fill="#2F241E" font-family="Arial" font-size="14" lengthAdjust="spacing" textLength="133.9639" x="234.6179" y="740.9622">Choose the framed</text><text fill="#2F241E" font-family="Arial" font-size="14" lengthAdjust="spacing" textLength="126.1162" x="238.5417" y="757.2591">photo and flowers</text></g><!--entity ReadReview--><g class="entity" data-qualified-name="Digital SingLit Bookshelf PoC.ReadReview" data-source-line="27" id="ent0016"><ellipse cx="301.6022" cy="1063.9933" fill="#FFF9EF" rx="92.3822" ry="20.8764" style="stroke:#A65443;stroke-width:0.5;"/><text fill="#2F241E" font-family="Arial" font-size="14" lengthAdjust="spacing" textLength="159.1133" x="222.0456" y="1068.6418">Read example reviews</text></g><!--entity Explorer--><g class="entity" data-qualified-name="Explorer" data-source-line="10" id="ent0001"><ellipse cx="42.884" cy="306.1969" fill="#F3D6A6" rx="8" ry="8" style="stroke:#7D4434;stroke-width:0.5;"/><path d="M42.884,314.1969 L42.884,341.1969 M29.884,322.1969 L55.884,322.1969 M42.884,341.1969 L29.884,356.1969 M42.884,341.1969 L55.884,356.1969" fill="none" style="stroke:#7D4434;stroke-width:0.5;"/><text fill="#2F241E" font-family="Arial" font-size="14" lengthAdjust="spacing" textLength="69.248" x="8.26" y="370.692">Collection</text><text fill="#2F241E" font-family="Arial" font-size="14" lengthAdjust="spacing" textLength="58.5977" x="8.26" y="386.9889">Explorer</text></g><!--entity Owner--><g class="entity" data-qualified-name="Owner" data-source-line="11" id="ent0002"><ellipse cx="42.8833" cy="706.1969" fill="#F3D6A6" rx="8" ry="8" style="stroke:#7D4434;stroke-width:0.5;"/><path d="M42.8833,714.1969 L42.8833,741.1969 M29.8833,722.1969 L55.8833,722.1969 M42.8833,741.1969 L29.8833,756.1969 M42.8833,741.1969 L55.8833,756.1969" fill="none" style="stroke:#7D4434;stroke-width:0.5;"/><text fill="#2F241E" font-family="Arial" font-size="14" lengthAdjust="spacing" textLength="73.7666" x="6" y="770.692">My Library</text><text fill="#2F241E" font-family="Arial" font-size="14" lengthAdjust="spacing" textLength="45.7119" x="6" y="786.9889">Owner</text></g><!--entity Visitor--><g class="entity" data-qualified-name="Visitor" data-source-line="12" id="ent0003"><ellipse cx="42.8833" cy="905.1969" fill="#F3D6A6" rx="8" ry="8" style="stroke:#7D4434;stroke-width:0.5;"/><path d="M42.8833,913.1969 L42.8833,940.1969 M29.8833,921.1969 L55.8833,921.1969 M42.8833,940.1969 L29.8833,955.1969 M42.8833,940.1969 L55.8833,955.1969" fill="none" style="stroke:#7D4434;stroke-width:0.5;"/><text fill="#2F241E" font-family="Arial" font-size="14" lengthAdjust="spacing" textLength="73.7666" x="6" y="969.692">My Library</text><text fill="#2F241E" font-family="Arial" font-size="14" lengthAdjust="spacing" textLength="44.4609" x="6" y="985.9889">Visitor</text></g><g class="entity" data-qualified-name="GMN33" data-source-line="50" id="ent0034"><path d="M139.77,47.2969 L139.77,94.6953 A4,4 0 0 0 143.77,98.6953 L459.4326,98.6953 A4,4 0 0 0 463.4326,94.6953 L463.4326,53.2969 L453.4326,43.2969 L143.77,43.2969 A4,4 0 0 0 139.77,47.2969" fill="#FFF2D9" style="stroke:#B66A45;stroke-width:0.5;"/><path d="M453.4326,43.2969 L453.4326,51.2969 A2,2 0 0 0 455.4326,53.2969 L463.4326,53.2969 L453.4326,43.2969" fill="#FFF2D9" style="stroke:#B66A45;stroke-width:1;"/><text fill="#3C2B22" font-family="Arial" font-size="13" lengthAdjust="spacing" textLength="302.6626" x="145.77" y="60.3638">Owner and Visitor are local interaction modes.</text><text fill="#3C2B22" font-family="Arial" font-size="13" lengthAdjust="spacing" textLength="298.9873" x="145.77" y="75.4966">The current application has no login, account,</text><text fill="#3C2B22" font-family="Arial" font-size="13" lengthAdjust="spacing" textLength="261.1743" x="145.77" y="90.6294">authentication, or authorization service.</text></g><!--link Explorer to Filter--><g class="link" data-entity-1="ent0001" data-entity-2="ent0005" data-link-type="dependency" data-source-line="30" id="lnk17"><path d="M77.94,327.0569 C96.01,318.4969 118.77,308.3869 139.77,300.9969 C171.21,289.9269 202.1611,281.4762 231.9911,274.2362" fill="none" id="Explorer-to-Filter" style="stroke:#7D4434;stroke-width:1.2;"/><polygon fill="#7D4434" points="236.85,273.0569,227.1605,271.2925,231.9911,274.2362,229.0474,279.0668,236.85,273.0569" style="stroke:#7D4434;stroke-width:1.2;stroke-linejoin:miter;stroke-miterlimit:10;"/></g><!--link Explorer to Explore--><g class="link" data-entity-1="ent0001" data-entity-2="ent0006" data-link-type="dependency" data-source-line="31" id="lnk18"><path d="M68.44,297.4369 C85.1,270.1569 109.57,237.2069 139.77,216.9969 C165.31,199.9069 192.5357,190.7896 221.3457,184.7696" fill="none" id="Explorer-to-Explore" style="stroke:#7D4434;stroke-width:1.2;"/><polygon fill="#7D4434" points="226.24,183.7469,216.6121,181.6723,221.3457,184.7696,218.2484,189.5031,226.24,183.7469" style="stroke:#7D4434;stroke-width:1.2;stroke-linejoin:miter;stroke-miterlimit:10;"/></g><!--link Explorer to Inspect--><g class="link" data-entity-1="ent0001" data-entity-2="ent0007" data-link-type="dependency" data-source-line="32" id="lnk19"><path d="M68.04,390.5569 C84.63,418.0169 109.17,451.1569 139.77,470.9969 C164.17,486.8169 189.586,494.9836 217.316,500.1936" fill="none" id="Explorer-to-Inspect" style="stroke:#7D4434;stroke-width:1.2;"/><polygon fill="#7D4434" points="222.23,501.1169,214.1234,495.5238,217.316,500.1936,212.6462,503.3862,222.23,501.1169" style="stroke:#7D4434;stroke-width:1.2;stroke-linejoin:miter;stroke-miterlimit:10;"/></g><!--link Explorer to Table--><g class="link" data-entity-1="ent0001" data-entity-2="ent0008" data-link-type="dependency" data-source-line="33" id="lnk20"><path d="M77.94,360.9369 C96.01,369.4969 118.77,379.6069 139.77,386.9969 C167.4,396.7269 193.5501,404.1209 220.9101,410.9809" fill="none" id="Explorer-to-Table" style="stroke:#7D4434;stroke-width:1.2;"/><polygon fill="#7D4434" points="225.76,412.1969,218.003,406.1281,220.9101,410.9809,216.0574,413.888,225.76,412.1969" style="stroke:#7D4434;stroke-width:1.2;stroke-linejoin:miter;stroke-miterlimit:10;"/></g><!--link Explorer to QR--><g class="link" data-entity-1="ent0001" data-entity-2="ent0009" data-link-type="dependency" data-source-line="34" id="lnk21"><path d="M77.97,343.9969 C114.18,343.9969 167.7,343.9969 215.66,343.9969" fill="none" id="Explorer-to-QR" style="stroke:#7D4434;stroke-width:1.2;"/><polygon fill="#7D4434" points="220.66,343.9969,211.66,339.9969,215.66,343.9969,211.66,347.9969,220.66,343.9969" style="stroke:#7D4434;stroke-width:1.2;stroke-linejoin:miter;stroke-miterlimit:10;"/></g><!--link Owner to ChooseRole--><g class="link" data-entity-1="ent0002" data-entity-2="ent0010" data-link-type="dependency" data-source-line="36" id="lnk22"><path d="M71.76,790.7069 C88.57,815.0569 112.07,843.3669 139.77,860.9969 C162.13,875.2369 184.326,883.3786 209.816,889.4486" fill="none" id="Owner-to-ChooseRole" style="stroke:#7D4434;stroke-width:1.2;"/><polygon fill="#7D4434" points="214.68,890.6069,206.8514,884.6308,209.816,889.4486,204.9982,892.4132,214.68,890.6069" style="stroke:#7D4434;stroke-width:1.2;stroke-linejoin:miter;stroke-miterlimit:10;"/></g><!--link Owner to BrowsePersonal--><g class="link" data-entity-1="ent0002" data-entity-2="ent0011" data-link-type="dependency" data-source-line="37" id="lnk23"><path d="M54.19,790.5669 C66.69,836.1269 92.28,904.1469 139.77,942.9969 C162.29,961.4269 187.1811,970.6963 214.9911,976.3763" fill="none" id="Owner-to-BrowsePersonal" style="stroke:#7D4434;stroke-width:1.2;"/><polygon fill="#7D4434" points="219.89,977.3769,211.8725,971.6568,214.9911,976.3763,210.2716,979.495,219.89,977.3769" style="stroke:#7D4434;stroke-width:1.2;stroke-linejoin:miter;stroke-miterlimit:10;"/></g><!--link Owner to Inspect--><g class="link" data-entity-1="ent0002" data-entity-2="ent0007" data-link-type="dependency" data-source-line="38" id="lnk24"><path d="M53.88,697.6169 C66.2,651.8769 91.67,583.4069 139.77,544.9969 C162.15,527.1169 186.6706,518.4508 214.2406,513.4408" fill="none" id="Owner-to-Inspect" style="stroke:#7D4434;stroke-width:1.2;"/><polygon fill="#7D4434" points="219.16,512.5469,209.5899,510.2204,214.2406,513.4408,211.0202,518.0915,219.16,512.5469" style="stroke:#7D4434;stroke-width:1.2;stroke-linejoin:miter;stroke-miterlimit:10;"/></g><!--link Owner to BuildList--><g class="link" data-entity-1="ent0002" data-entity-2="ent0012" data-link-type="dependency" data-source-line="39" id="lnk25"><path d="M80.07,725.6869 C97.74,717.2869 119.51,707.7269 139.77,700.9969 C171.13,690.5769 202.0287,683.2153 231.8787,677.1953" fill="none" id="Owner-to-BuildList" style="stroke:#7D4434;stroke-width:1.2;"/><polygon fill="#7D4434" points="236.78,676.2069,227.1668,674.0651,231.8787,677.1953,228.7484,681.9072,236.78,676.2069" style="stroke:#7D4434;stroke-width:1.2;stroke-linejoin:miter;stroke-miterlimit:10;"/></g><!--link Owner to MoveState--><g class="link" data-entity-1="ent0002" data-entity-2="ent0013" data-link-type="dependency" data-source-line="40" id="lnk26"><path d="M72.57,697.2969 C89.4,673.5669 112.66,646.2069 139.77,628.9969 C161.82,614.9969 183.5275,606.8523 208.6475,600.6123" fill="none" id="Owner-to-MoveState" style="stroke:#7D4434;stroke-width:1.2;"/><polygon fill="#7D4434" points="213.5,599.4069,203.8011,597.6946,208.6475,600.6123,205.7298,605.4586,213.5,599.4069" style="stroke:#7D4434;stroke-width:1.2;stroke-linejoin:miter;stroke-miterlimit:10;"/></g><!--link Owner to Review--><g class="link" data-entity-1="ent0002" data-entity-2="ent0014" data-link-type="dependency" data-source-line="41" id="lnk27"><path d="M80.09,762.2569 C97.76,770.6369 119.53,780.2069 139.77,786.9969 C170.32,797.2569 200.1871,804.6073 229.5571,810.7873" fill="none" id="Owner-to-Review" style="stroke:#7D4434;stroke-width:1.2;"/><polygon fill="#7D4434" points="234.45,811.8169,226.4665,806.0494,229.5571,810.7873,224.8192,813.878,234.45,811.8169" style="stroke:#7D4434;stroke-width:1.2;stroke-linejoin:miter;stroke-miterlimit:10;"/></g><!--link Owner to Personalize--><g class="link" data-entity-1="ent0002" data-entity-2="ent0015" data-link-type="dependency" data-source-line="42" id="lnk28"><path d="M80.12,743.9969 C112.46,743.9969 156.29,743.9969 199.79,743.9969" fill="none" id="Owner-to-Personalize" style="stroke:#7D4434;stroke-width:1.2;"/><polygon fill="#7D4434" points="204.79,743.9969,195.79,739.9969,199.79,743.9969,195.79,747.9969,204.79,743.9969" style="stroke:#7D4434;stroke-width:1.2;stroke-linejoin:miter;stroke-miterlimit:10;"/></g><!--link Visitor to ChooseRole--><g class="link" data-entity-1="ent0003" data-entity-2="ent0010" data-link-type="dependency" data-source-line="44" id="lnk29"><path d="M80.12,937.2069 C115.92,931.4969 166.9825,923.3352 213.5825,915.8952" fill="none" id="Visitor-to-ChooseRole" style="stroke:#7D4434;stroke-width:1.2;"/><polygon fill="#7D4434" points="218.52,915.1069,209.0019,912.5758,213.5825,915.8952,210.2632,920.4758,218.52,915.1069" style="stroke:#7D4434;stroke-width:1.2;stroke-linejoin:miter;stroke-miterlimit:10;"/></g><!--link Visitor to BrowsePersonal--><g class="link" data-entity-1="ent0003" data-entity-2="ent0011" data-link-type="dependency" data-source-line="45" id="lnk30"><path d="M80.12,948.7869 C118.13,954.8569 173.9725,963.779 222.1025,971.459" fill="none" id="Visitor-to-BrowsePersonal" style="stroke:#7D4434;stroke-width:1.2;"/><polygon fill="#7D4434" points="227.04,972.2469,218.7827,966.8787,222.1025,971.459,217.5221,974.7787,227.04,972.2469" style="stroke:#7D4434;stroke-width:1.2;stroke-linejoin:miter;stroke-miterlimit:10;"/></g><!--link Visitor to Inspect--><g class="link" data-entity-1="ent0003" data-entity-2="ent0007" data-link-type="dependency" data-source-line="46" id="lnk31"><path d="M56.75,896.2469 C63.78,870.3069 72.5,837.4269 79.77,807.9969 C108.5,691.5969 55.07,629.8469 139.77,544.9969 C160.11,524.6169 184.3403,515.3723 212.2503,510.6423" fill="none" id="Visitor-to-Inspect" style="stroke:#7D4434;stroke-width:1.2;"/><polygon fill="#7D4434" points="217.18,509.8069,207.6382,507.3669,212.2503,510.6423,208.9749,515.2545,217.18,509.8069" style="stroke:#7D4434;stroke-width:1.2;stroke-linejoin:miter;stroke-miterlimit:10;"/></g><!--link Visitor to ReadReview--><g class="link" data-entity-1="ent0003" data-entity-2="ent0016" data-link-type="dependency" data-source-line="47" id="lnk32"><path d="M80.03,981.0469 C96.84,996.7369 117.92,1013.8269 139.77,1024.9969 C165.35,1038.0769 190.593,1045.8298 217.823,1051.7198" fill="none" id="Visitor-to-ReadReview" style="stroke:#7D4434;stroke-width:1.2;"/><polygon fill="#7D4434" points="222.71,1052.7769,214.7591,1046.9645,217.823,1051.7198,213.0678,1054.7837,222.71,1052.7769" style="stroke:#7D4434;stroke-width:1.2;stroke-linejoin:miter;stroke-miterlimit:10;"/></g><!--link ReadReview to GMN33--><g class="link" data-entity-1="ent0016" data-entity-2="ent0034" data-link-type="association" data-source-line="50" id="lnk35"><path d="M208.96,1062.9269 C170.21,1056.9669 129.61,1042.0469 109.77,1007.4969 C86.08,966.2569 86.08,192.7369 109.77,151.4969 C123.44,127.6969 145.9,110.9269 170.73,99.1269" fill="none" id="ReadReview-GMN33" style="stroke:#7D4434;stroke-width:1.2;stroke-dasharray:7,7;"/></g><?plantuml-src ZLHDRzim3BthLt2vj0MIvhx3W3Nji07frgR5JW46HMPiOh9aI78-Eko_ZvBjHiwAOJUJUiya7vzq0NSxAj0eV0_UgRbicdaZIxmE_W2NdssDL-BY38E71Xt5sCyzcL9Jc2zfuwGxThG--3UpFkeEDhy_ZjYgijRZocgSWctGF4jNOW1f2gZR80DP0nL76ft_tnBXsA3dtyFbQx5Ou4gy8wDqMo3y21NMU4rjhOK853J2edKEJG37I9_gjnv1IOzUQDm621OSbLM0WXogs9WGKWNhOBAmMdUfjRaxDDewT1EG7ePW0DuVeMzeRRxjJOzANsz1lfCdJYPG_or4B2vv3mYJMoefI0rFl9Sb1RYnzgUlK6_XmIucy4j072BE09DFf0CwuC71Lz9XiJPACjcMBQO27I2dBFbt89rjMGpchSrGnrbRv_Fbf2_6DzmXR2Avm219-uJj3tBilTrX0dhOODWZidvT_r7_83UwQ-qvVkN4M_ADbiSqpTVbpThKTaCQPsneU5mbpkDAv8n5yXb8s4KTPrwnsLY2kEq4NxpwC6VTEBjFBBQPjqRgjUbDbaZTyKD_DYAsf0lcEPG5YmQQVEWeyM39qLywo4woKB7WPSMjzLJFjm0x2IFkAOOv-MDH01i72rvCBBWZt2VqAds-8K9KRUja7GLeAil6Zd9ljTtp98awZ4Gler8hRWdm8Ek6tTTLydqfMVJbVWink1vcim-3hKQvmJQZvE2FKRBR_2WL5vjkJ8golPsIPtiv7GmrCkZhFawvayodN3_TAP5B9FhBUTvHdZxhAJyQkifpcQB2s12lIGYsvcrqBSID3NY-pQ2jueU036ijqqi4jItu5MJ2CwzRzQyRNn1DQdXMFHZBp9BC5AHIVD73b0coPOUOqEEcqLqnPHszT4oFRaSAhmLo5x6xFm00?></g></svg>