<svg xmlns="http://www.w3.org/2000/svg" xmlns:xlink="http://www.w3.org/1999/xlink" contentStyleType="text/css" data-diagram-type="ACTIVITY" height="834px" preserveAspectRatio="none" style="width:682px;height:834px;background:#FCF8F1;" version="1.1" viewBox="0 0 682 834" width="682px" zoomAndPan="magnify"><?plantuml 1.2026.4?><defs/><g><rect fill="#FCF8F1" height="834" style="stroke:none;stroke-width:1;" width="682" x="0" y="0"/><g class="title" data-source-line="7"><text fill="#2F241E" font-family="Arial" font-size="14" font-weight="700" lengthAdjust="spacing" textLength="240.6865" x="220.144" y="32.9951">SingLit Collection activity flow</text></g><ellipse cx="273.2974" cy="62.2969" fill="#A65443" rx="10" ry="10" style="stroke:#222222;stroke-width:1;"/><rect fill="#FFF9EF" height="33.9688" rx="4" ry="4" style="stroke:#7D4434;stroke-width:0.5;" width="183.4414" x="181.5767" y="92.2969"/><text fill="#2F241E" font-family="Arial" font-size="12" lengthAdjust="spacing" textLength="163.4414" x="191.5767" y="113.4355">Open the SingLit Collection</text><rect fill="#FFF9EF" height="33.9688" rx="4" ry="4" style="stroke:#7D4434;stroke-width:0.5;" width="255.0254" x="145.7847" y="194.668"/><text fill="#2F241E" font-family="Arial" font-size="12" lengthAdjust="spacing" textLength="235.0254" x="155.7847" y="215.8066">Choose a field and enter a search term</text><rect fill="#FFF9EF" height="33.9688" rx="4" ry="4" style="stroke:#7D4434;stroke-width:0.5;" width="171.8867" x="187.354" y="263.6367"/><text fill="#2F241E" font-family="Arial" font-size="12" lengthAdjust="spacing" textLength="151.8867" x="197.354" y="284.7754">View the matching books</text><polygon fill="#F3D6A6" points="221.7778,146.2656,324.8169,146.2656,336.8169,158.2656,324.8169,170.2656,221.7778,170.2656,209.7778,158.2656,221.7778,146.2656" style="stroke:#7D4434;stroke-width:0.5;stroke-linejoin:miter;stroke-miterlimit:10;"/><text fill="#2F241E" font-family="Arial" font-size="11" lengthAdjust="spacing" textLength="19.0083" x="277.2974" y="180.4761">yes</text><text fill="#2F241E" font-family="Arial" font-size="11" lengthAdjust="spacing" textLength="103.0391" x="221.7778" y="162.0737">Search for a book?</text><polygon fill="#F3D6A6" points="273.2974,317.6055,285.2974,329.6055,273.2974,341.6055,261.2974,329.6055,273.2974,317.6055" style="stroke:#7D4434;stroke-width:0.5;stroke-linejoin:miter;stroke-miterlimit:10;"/><rect fill="#FFF9EF" height="33.9688" rx="4" ry="4" style="stroke:#7D4434;stroke-width:0.5;" width="212.2813" x="167.1567" y="361.6055"/><text fill="#2F241E" font-family="Arial" font-size="12" lengthAdjust="spacing" textLength="192.2813" x="177.1567" y="382.7441">Enter the room and look around</text><rect fill="#FFF9EF" height="33.9688" rx="4" ry="4" style="stroke:#7D4434;stroke-width:0.5;" width="169.1973" x="188.6987" y="415.5742"/><text fill="#2F241E" font-family="Arial" font-size="12" lengthAdjust="spacing" textLength="149.1973" x="198.6987" y="436.7129">Aim at and select a book</text><rect fill="#FFF9EF" height="33.9688" rx="4" ry="4" style="stroke:#7D4434;stroke-width:0.5;" width="112.5898" x="217.0024" y="469.543"/><text fill="#2F241E" font-family="Arial" font-size="12" lengthAdjust="spacing" textLength="92.5898" x="227.0024" y="490.6816">Read its details</text><polygon fill="#F3D6A6" points="220.3545,523.5117,326.2402,523.5117,338.2402,535.5117,326.2402,547.5117,220.3545,547.5117,208.3545,535.5117,220.3545,523.5117" style="stroke:#7D4434;stroke-width:0.5;stroke-linejoin:miter;stroke-miterlimit:10;"/><text fill="#2F241E" font-family="Arial" font-size="11" lengthAdjust="spacing" textLength="105.8857" x="220.3545" y="539.3198">Where is the book?</text><text fill="#2F241E" font-family="Arial" font-size="11" lengthAdjust="spacing" textLength="27.6504" x="180.7041" y="532.9175">Shelf</text><text fill="#2F241E" font-family="Arial" font-size="11" lengthAdjust="spacing" textLength="30.2661" x="338.2402" y="532.9175">Table</text><rect fill="#FFF9EF" height="33.9688" rx="4" ry="4" style="stroke:#7D4434;stroke-width:0.5;" width="173.5918" x="16" y="605.9141"/><text fill="#2F241E" font-family="Arial" font-size="12" lengthAdjust="spacing" textLength="153.5918" x="26" y="627.0527">Add the book to the table</text><polygon fill="#F3D6A6" points="49.9766,557.5117,155.6152,557.5117,167.6152,569.5117,155.6152,581.5117,49.9766,581.5117,37.9766,569.5117,49.9766,557.5117" style="stroke:#7D4434;stroke-width:0.5;stroke-linejoin:miter;stroke-miterlimit:10;"/><text fill="#2F241E" font-family="Arial" font-size="11" lengthAdjust="spacing" textLength="19.0083" x="106.7959" y="591.7222">yes</text><text fill="#2F241E" font-family="Arial" font-size="11" lengthAdjust="spacing" textLength="105.6387" x="49.9766" y="573.3198">Add it to the table?</text><polygon fill="#F3D6A6" points="102.7959,664.2852,114.7959,676.2852,102.7959,688.2852,90.7959,676.2852,102.7959,664.2852" style="stroke:#7D4434;stroke-width:0.5;stroke-linejoin:miter;stroke-miterlimit:10;"/><polygon fill="#F3D6A6" points="412.3994,557.5117,475.1982,557.5117,487.1982,569.5117,475.1982,581.5117,412.3994,581.5117,400.3994,569.5117,412.3994,557.5117" style="stroke:#7D4434;stroke-width:0.5;stroke-linejoin:miter;stroke-miterlimit:10;"/><text fill="#2F241E" font-family="Arial" font-size="11" lengthAdjust="spacing" textLength="62.7988" x="412.3994" y="573.3198">What next?</text><text fill="#2F241E" font-family="Arial" font-size="11" lengthAdjust="spacing" textLength="37.1895" x="363.21" y="566.9175">Return</text><text fill="#2F241E" font-family="Arial" font-size="11" lengthAdjust="spacing" textLength="39.0479" x="487.1982" y="566.9175">Borrow</text><rect fill="#FFF9EF" height="33.9688" rx="4" ry="4" style="stroke:#7D4434;stroke-width:0.5;" width="183.7227" x="241.5918" y="591.5117"/><text fill="#2F241E" font-family="Arial" font-size="12" lengthAdjust="spacing" textLength="163.7227" x="251.5918" y="612.6504">Return the book to its shelf</text><rect fill="#FFF9EF" height="33.9688" rx="4" ry="4" style="stroke:#7D4434;stroke-width:0.5;" width="217.6602" x="445.3145" y="591.5117"/><text fill="#2F241E" font-family="Arial" font-size="12" lengthAdjust="spacing" textLength="197.6602" x="455.3145" y="612.6504">Display the borrowing QR screen</text><polygon fill="#F3D6A6" points="443.7988,631.4805,455.7988,643.4805,443.7988,655.4805,431.7988,643.4805,443.7988,631.4805" style="stroke:#7D4434;stroke-width:0.5;stroke-linejoin:miter;stroke-miterlimit:10;"/><polygon fill="#F3D6A6" points="273.2974,694.2852,285.2974,706.2852,273.2974,718.2852,261.2974,706.2852,273.2974,694.2852" style="stroke:#7D4434;stroke-width:0.5;stroke-linejoin:miter;stroke-miterlimit:10;"/><rect fill="#FFF9EF" height="33.9688" rx="4" ry="4" style="stroke:#7D4434;stroke-width:0.5;" width="186.5" x="180.0474" y="738.2852"/><text fill="#2F241E" font-family="Arial" font-size="12" lengthAdjust="spacing" textLength="166.5" x="190.0474" y="759.4238">Continue exploring or leave</text><ellipse cx="273.2974" cy="803.2539" fill="none" rx="11" ry="11" style="stroke:#222222;stroke-width:1;"/><ellipse cx="273.2974" cy="803.2539" fill="#222222" rx="6" ry="6" style="stroke:#222222;stroke-width:1;"/><line style="stroke:#7D4434;stroke-width:1.2;" x1="273.2974" x2="273.2974" y1="72.2969" y2="92.2969"/><polygon fill="#7D4434" points="269.2974,82.2969,273.2974,92.2969,277.2974,82.2969,273.2974,86.2969" style="stroke:#7D4434;stroke-width:1;stroke-linejoin:miter;stroke-miterlimit:10;"/><line style="stroke:#7D4434;stroke-width:1.2;" x1="273.2974" x2="273.2974" y1="228.6367" y2="263.6367"/><polygon fill="#7D4434" points="269.2974,253.6367,273.2974,263.6367,277.2974,253.6367,273.2974,257.6367" style="stroke:#7D4434;stroke-width:1;stroke-linejoin:miter;stroke-miterlimit:10;"/><line style="stroke:#7D4434;stroke-width:1.2;" x1="273.2974" x2="273.2974" y1="170.2656" y2="194.668"/><polygon fill="#7D4434" points="269.2974,184.668,273.2974,194.668,277.2974,184.668,273.2974,188.668" style="stroke:#7D4434;stroke-width:1;stroke-linejoin:miter;stroke-miterlimit:10;"/><line style="stroke:#7D4434;stroke-width:1.2;" x1="336.8169" x2="410.8101" y1="158.2656" y2="158.2656"/><polygon fill="#7D4434" points="406.8101,236.1367,410.8101,246.1367,414.8101,236.1367,410.8101,240.1367" style="stroke:#7D4434;stroke-width:1.2;stroke-linejoin:miter;stroke-miterlimit:10;"/><line style="stroke:#7D4434;stroke-width:1.2;" x1="410.8101" x2="410.8101" y1="158.2656" y2="329.6055"/><line style="stroke:#7D4434;stroke-width:1.2;" x1="410.8101" x2="285.2974" y1="329.6055" y2="329.6055"/><polygon fill="#7D4434" points="295.2974,325.6055,285.2974,329.6055,295.2974,333.6055,291.2974,329.6055" style="stroke:#7D4434;stroke-width:1;stroke-linejoin:miter;stroke-miterlimit:10;"/><line style="stroke:#7D4434;stroke-width:1.2;" x1="273.2974" x2="273.2974" y1="297.6055" y2="317.6055"/><polygon fill="#7D4434" points="269.2974,307.6055,273.2974,317.6055,277.2974,307.6055,273.2974,311.6055" style="stroke:#7D4434;stroke-width:1;stroke-linejoin:miter;stroke-miterlimit:10;"/><line style="stroke:#7D4434;stroke-width:1.2;" x1="273.2974" x2="273.2974" y1="126.2656" y2="146.2656"/><polygon fill="#7D4434" points="269.2974,136.2656,273.2974,146.2656,277.2974,136.2656,273.2974,140.2656" style="stroke:#7D4434;stroke-width:1;stroke-linejoin:miter;stroke-miterlimit:10;"/><line style="stroke:#7D4434;stroke-width:1.2;" x1="273.2974" x2="273.2974" y1="341.6055" y2="361.6055"/><polygon fill="#7D4434" points="269.2974,351.6055,273.2974,361.6055,277.2974,351.6055,273.2974,355.6055" style="stroke:#7D4434;stroke-width:1;stroke-linejoin:miter;stroke-miterlimit:10;"/><line style="stroke:#7D4434;stroke-width:1.2;" x1="273.2974" x2="273.2974" y1="395.5742" y2="415.5742"/><polygon fill="#7D4434" points="269.2974,405.5742,273.2974,415.5742,277.2974,405.5742,273.2974,409.5742" style="stroke:#7D4434;stroke-width:1;stroke-linejoin:miter;stroke-miterlimit:10;"/><line style="stroke:#7D4434;stroke-width:1.2;" x1="273.2974" x2="273.2974" y1="449.543" y2="469.543"/><polygon fill="#7D4434" points="269.2974,459.543,273.2974,469.543,277.2974,459.543,273.2974,463.543" style="stroke:#7D4434;stroke-width:1;stroke-linejoin:miter;stroke-miterlimit:10;"/><line style="stroke:#7D4434;stroke-width:1.2;" x1="102.7959" x2="102.7959" y1="581.5117" y2="605.9141"/><polygon fill="#7D4434" points="98.7959,595.9141,102.7959,605.9141,106.7959,595.9141,102.7959,599.9141" style="stroke:#7D4434;stroke-width:1;stroke-linejoin:miter;stroke-miterlimit:10;"/><line style="stroke:#7D4434;stroke-width:1.2;" x1="167.6152" x2="199.5918" y1="569.5117" y2="569.5117"/><polygon fill="#7D4434" points="195.5918,612.8984,199.5918,622.8984,203.5918,612.8984,199.5918,616.8984" style="stroke:#7D4434;stroke-width:1.2;stroke-linejoin:miter;stroke-miterlimit:10;"/><line style="stroke:#7D4434;stroke-width:1.2;" x1="199.5918" x2="199.5918" y1="569.5117" y2="676.2852"/><line style="stroke:#7D4434;stroke-width:1.2;" x1="199.5918" x2="114.7959" y1="676.2852" y2="676.2852"/><polygon fill="#7D4434" points="124.7959,672.2852,114.7959,676.2852,124.7959,680.2852,120.7959,676.2852" style="stroke:#7D4434;stroke-width:1;stroke-linejoin:miter;stroke-miterlimit:10;"/><line style="stroke:#7D4434;stroke-width:1.2;" x1="102.7959" x2="102.7959" y1="639.8828" y2="664.2852"/><polygon fill="#7D4434" points="98.7959,654.2852,102.7959,664.2852,106.7959,654.2852,102.7959,658.2852" style="stroke:#7D4434;stroke-width:1;stroke-linejoin:miter;stroke-miterlimit:10;"/><line style="stroke:#7D4434;stroke-width:1.2;" x1="400.3994" x2="333.4531" y1="569.5117" y2="569.5117"/><line style="stroke:#7D4434;stroke-width:1.2;" x1="333.4531" x2="333.4531" y1="569.5117" y2="591.5117"/><polygon fill="#7D4434" points="329.4531,581.5117,333.4531,591.5117,337.4531,581.5117,333.4531,585.5117" style="stroke:#7D4434;stroke-width:1;stroke-linejoin:miter;stroke-miterlimit:10;"/><line style="stroke:#7D4434;stroke-width:1.2;" x1="487.1982" x2="554.1445" y1="569.5117" y2="569.5117"/><line style="stroke:#7D4434;stroke-width:1.2;" x1="554.1445" x2="554.1445" y1="569.5117" y2="591.5117"/><polygon fill="#7D4434" points="550.1445,581.5117,554.1445,591.5117,558.1445,581.5117,554.1445,585.5117" style="stroke:#7D4434;stroke-width:1;stroke-linejoin:miter;stroke-miterlimit:10;"/><line style="stroke:#7D4434;stroke-width:1.2;" x1="333.4531" x2="333.4531" y1="625.4805" y2="643.4805"/><line style="stroke:#7D4434;stroke-width:1.2;" x1="333.4531" x2="431.7988" y1="643.4805" y2="643.4805"/><polygon fill="#7D4434" points="421.7988,639.4805,431.7988,643.4805,421.7988,647.4805,425.7988,643.4805" style="stroke:#7D4434;stroke-width:1;stroke-linejoin:miter;stroke-miterlimit:10;"/><line style="stroke:#7D4434;stroke-width:1.2;" x1="554.1445" x2="554.1445" y1="625.4805" y2="643.4805"/><line style="stroke:#7D4434;stroke-width:1.2;" x1="554.1445" x2="455.7988" y1="643.4805" y2="643.4805"/><polygon fill="#7D4434" points="465.7988,639.4805,455.7988,643.4805,465.7988,647.4805,461.7988,643.4805" style="stroke:#7D4434;stroke-width:1;stroke-linejoin:miter;stroke-miterlimit:10;"/><line style="stroke:#7D4434;stroke-width:1.2;" x1="208.3545" x2="102.7959" y1="535.5117" y2="535.5117"/><line style="stroke:#7D4434;stroke-width:1.2;" x1="102.7959" x2="102.7959" y1="535.5117" y2="557.5117"/><polygon fill="#7D4434" points="98.7959,547.5117,102.7959,557.5117,106.7959,547.5117,102.7959,551.5117" style="stroke:#7D4434;stroke-width:1;stroke-linejoin:miter;stroke-miterlimit:10;"/><line style="stroke:#7D4434;stroke-width:1.2;" x1="338.2402" x2="443.7988" y1="535.5117" y2="535.5117"/><line style="stroke:#7D4434;stroke-width:1.2;" x1="443.7988" x2="443.7988" y1="535.5117" y2="557.5117"/><polygon fill="#7D4434" points="439.7988,547.5117,443.7988,557.5117,447.7988,547.5117,443.7988,551.5117" style="stroke:#7D4434;stroke-width:1;stroke-linejoin:miter;stroke-miterlimit:10;"/><line style="stroke:#7D4434;stroke-width:1.2;" x1="102.7959" x2="102.7959" y1="688.2852" y2="706.2852"/><line style="stroke:#7D4434;stroke-width:1.2;" x1="102.7959" x2="261.2974" y1="706.2852" y2="706.2852"/><polygon fill="#7D4434" points="251.2974,702.2852,261.2974,706.2852,251.2974,710.2852,255.2974,706.2852" style="stroke:#7D4434;stroke-width:1;stroke-linejoin:miter;stroke-miterlimit:10;"/><line style="stroke:#7D4434;stroke-width:1.2;" x1="443.7988" x2="443.7988" y1="655.4805" y2="706.2852"/><line style="stroke:#7D4434;stroke-width:1.2;" x1="443.7988" x2="285.2974" y1="706.2852" y2="706.2852"/><polygon fill="#7D4434" points="295.2974,702.2852,285.2974,706.2852,295.2974,710.2852,291.2974,706.2852" style="stroke:#7D4434;stroke-width:1;stroke-linejoin:miter;stroke-miterlimit:10;"/><line style="stroke:#7D4434;stroke-width:1.2;" x1="273.2974" x2="273.2974" y1="503.5117" y2="523.5117"/><polygon fill="#7D4434" points="269.2974,513.5117,273.2974,523.5117,277.2974,513.5117,273.2974,517.5117" style="stroke:#7D4434;stroke-width:1;stroke-linejoin:miter;stroke-miterlimit:10;"/><line style="stroke:#7D4434;stroke-width:1.2;" x1="273.2974" x2="273.2974" y1="718.2852" y2="738.2852"/><polygon fill="#7D4434" points="269.2974,728.2852,273.2974,738.2852,277.2974,728.2852,273.2974,732.2852" style="stroke:#7D4434;stroke-width:1;stroke-linejoin:miter;stroke-miterlimit:10;"/><line style="stroke:#7D4434;stroke-width:1.2;" x1="273.2974" x2="273.2974" y1="772.2539" y2="792.2539"/><polygon fill="#7D4434" points="269.2974,782.2539,273.2974,792.2539,277.2974,782.2539,273.2974,786.2539" style="stroke:#7D4434;stroke-width:1;stroke-linejoin:miter;stroke-miterlimit:10;"/><?plantuml-src ZL9DRnen4BtxLqnF8LALlSEX0igX2X8KKAEUaB5dsL6ClR9d-VZt7PibAL4EEUrwvhtdzyRp0BCZMVG6Xv2YgNJRLYOuXuOf-AhLUtpYT8R1zAsubDgZUlX0n7EBaV8vLOdytX5NSzf57IzNWHZ2OOMsCnY_GqsE1UxteBq5rZk7qCYlmvY-fZq9uVNTq_MA5Mf7YSdavYSwLhEkTj9REctmW9w51uFDU3AVRIUBnVDsEbwEfxysVukjzeQ21brRd7qZRrnd4RRSIEk9keDJYed5_rgSpOdXtHLe-Ho9Br2xS58giOwiXeiMFGZ_4yP8AQfXi4OTJGDrYA0X6_xnc0aU1XSK5m33QHD2GkdMXCuMks8KCpvToN8uZ3Bq3-6fN7VGR9eyywoOHWgzfLgfuQmGCoA_KT5oWW0TG-VjI0t795KkZOJPQUzAMZ9o2oHJjCYQNEe3l3GO4IWLrRi0QvbbdIDasDXcCd0ekB867vDAW8owwTnXSxnh27GoZC4c5s_QBurOzdZcDyKLSXTzBteztEdc62dRAxf5SH9Y3AUUyfEIhCIbv-H67kRl5IGJ4Vr_Rlh1JeDdyXs2BB0BPTtbHHtgerXF7Df_?></g></svg>