<svg xmlns="http://www.w3.org/2000/svg" xmlns:xlink="http://www.w3.org/1999/xlink" contentStyleType="text/css" data-diagram-type="ACTIVITY" height="1350px" preserveAspectRatio="none" style="width:1116px;height:1350px;background:#FCF8F1;" version="1.1" viewBox="0 0 1116 1350" width="1116px" zoomAndPan="magnify"><?plantuml 1.2026.4?><defs/><g><rect fill="#FCF8F1" height="1350" style="stroke:none;stroke-width:1;" width="1116" x="0" y="0"/><g class="title" data-source-line="7"><text fill="#2F241E" font-family="Arial" font-size="14" font-weight="700" lengthAdjust="spacing" textLength="240.6865" x="437.0583" y="32.9951">SingLit Collection activity flow</text></g><ellipse cx="720.7222" cy="62.2969" fill="#A65443" rx="10" ry="10" style="stroke:#222222;stroke-width:1;"/><rect fill="#FFF9EF" height="33.9688" rx="4" ry="4" style="stroke:#7D4434;stroke-width:0.5;" width="117.4824" x="661.981" y="92.2969"/><text fill="#2F241E" font-family="Arial" font-size="12" lengthAdjust="spacing" textLength="97.4824" x="671.981" y="113.4355">Open /collection</text><rect fill="#FFF9EF" height="47.9375" rx="4" ry="4" style="stroke:#7D4434;stroke-width:0.5;" width="219.3418" x="611.0513" y="146.2656"/><text fill="#2F241E" font-family="Arial" font-size="12" lengthAdjust="spacing" textLength="199.3418" x="621.0513" y="167.4043">Server loads all books from Neon</text><text fill="#2F241E" font-family="Arial" font-size="12" lengthAdjust="spacing" textLength="152.7949" x="621.0513" y="181.373">ordered by serial number</text><rect fill="#FFF9EF" height="33.9688" rx="4" ry="4" style="stroke:#7D4434;stroke-width:0.5;" width="210.4063" x="615.5191" y="214.2031"/><text fill="#2F241E" font-family="Arial" font-size="12" lengthAdjust="spacing" textLength="190.4063" x="625.5191" y="235.3418">Show filters mode and 3D room</text><polygon fill="#F3D6A6" points="637.7415,268.1719,803.7029,268.1719,815.7029,280.1719,803.7029,292.1719,637.7415,292.1719,625.7415,280.1719,637.7415,268.1719" style="stroke:#7D4434;stroke-width:0.5;stroke-linejoin:miter;stroke-miterlimit:10;"/><text fill="#2F241E" font-family="Arial" font-size="11" lengthAdjust="spacing" textLength="165.9614" x="637.7415" y="283.98">Choose field and enter query?</text><text fill="#2F241E" font-family="Arial" font-size="11" lengthAdjust="spacing" textLength="19.0083" x="606.7332" y="277.5776">yes</text><text fill="#2F241E" font-family="Arial" font-size="11" lengthAdjust="spacing" textLength="13.7017" x="815.7029" y="277.5776">no</text><rect fill="#FFF9EF" height="47.9375" rx="4" ry="4" style="stroke:#7D4434;stroke-width:0.5;" width="218.7852" x="506.3489" y="302.1719"/><text fill="#2F241E" font-family="Arial" font-size="12" lengthAdjust="spacing" textLength="198.7852" x="516.3489" y="323.3105">Filter in browser memory using a</text><text fill="#2F241E" font-family="Arial" font-size="12" lengthAdjust="spacing" textLength="155.9414" x="516.3489" y="337.2793">case-insensitive substring</text><rect fill="#FFF9EF" height="47.9375" rx="4" ry="4" style="stroke:#7D4434;stroke-width:0.5;" width="153.6172" x="538.9329" y="370.1094"/><text fill="#2F241E" font-family="Arial" font-size="12" lengthAdjust="spacing" textLength="133.6172" x="548.9329" y="391.248">Keep all books visible;</text><text fill="#2F241E" font-family="Arial" font-size="12" lengthAdjust="spacing" textLength="113.666" x="548.9329" y="405.2168">mute non-matches</text><rect fill="#FFF9EF" height="33.9688" rx="4" ry="4" style="stroke:#7D4434;stroke-width:0.5;" width="115.959" x="767.7234" y="302.1719"/><text fill="#2F241E" font-family="Arial" font-size="12" lengthAdjust="spacing" textLength="95.959" x="777.7234" y="323.3105">All books match</text><polygon fill="#F3D6A6" points="720.7222,424.0469,732.7222,436.0469,720.7222,448.0469,708.7222,436.0469,720.7222,424.0469" style="stroke:#7D4434;stroke-width:0.5;stroke-linejoin:miter;stroke-miterlimit:10;"/><rect fill="#FFF9EF" height="33.9688" rx="4" ry="4" style="stroke:#7D4434;stroke-width:0.5;" width="165.7344" x="637.855" y="468.0469"/><text fill="#2F241E" font-family="Arial" font-size="12" lengthAdjust="spacing" textLength="145.7344" x="647.855" y="489.1855">Activate Enter / Resume</text><polygon fill="#F3D6A6" points="677.2969,522.0156,764.1475,522.0156,776.1475,534.0156,764.1475,546.0156,677.2969,546.0156,665.2969,534.0156,677.2969,522.0156" style="stroke:#7D4434;stroke-width:0.5;stroke-linejoin:miter;stroke-miterlimit:10;"/><text fill="#2F241E" font-family="Arial" font-size="11" lengthAdjust="spacing" textLength="86.8506" x="677.2969" y="537.8237">Coarse pointer?</text><text fill="#2F241E" font-family="Arial" font-size="11" lengthAdjust="spacing" textLength="19.0083" x="646.2886" y="531.4214">yes</text><text fill="#2F241E" font-family="Arial" font-size="11" lengthAdjust="spacing" textLength="13.7017" x="776.1475" y="531.4214">no</text><rect fill="#FFF9EF" height="33.9688" rx="4" ry="4" style="stroke:#7D4434;stroke-width:0.5;" width="217.2969" x="437.836" y="556.0156"/><text fill="#2F241E" font-family="Arial" font-size="12" lengthAdjust="spacing" textLength="197.2969" x="447.836" y="577.1543">Enter moving mode immediately</text><rect fill="#FFF9EF" height="33.9688" rx="4" ry="4" style="stroke:#7D4434;stroke-width:0.5;" width="154.3672" x="469.3008" y="609.9844"/><text fill="#2F241E" font-family="Arial" font-size="12" lengthAdjust="spacing" textLength="134.3672" x="479.3008" y="631.123">Drag to rotate camera</text><rect fill="#FFF9EF" height="33.9688" rx="4" ry="4" style="stroke:#7D4434;stroke-width:0.5;" width="144.0195" x="474.4747" y="678.9531"/><text fill="#2F241E" font-family="Arial" font-size="12" lengthAdjust="spacing" textLength="124.0195" x="484.4747" y="700.0918">Tap a centred target</text><rect fill="#FFF9EF" height="33.9688" rx="4" ry="4" style="stroke:#7D4434;stroke-width:0.5;" width="144.0547" x="822.9327" y="556.0156"/><text fill="#2F241E" font-family="Arial" font-size="12" lengthAdjust="spacing" textLength="124.0547" x="832.9327" y="577.1543">Request pointer lock</text><polygon fill="#F3D6A6" points="853.6187,609.9844,936.3013,609.9844,948.3013,621.9844,936.3013,633.9844,853.6187,633.9844,841.6187,621.9844,853.6187,609.9844" style="stroke:#7D4434;stroke-width:0.5;stroke-linejoin:miter;stroke-miterlimit:10;"/><text fill="#2F241E" font-family="Arial" font-size="11" lengthAdjust="spacing" textLength="82.6826" x="853.6187" y="625.7925">Lock acquired?</text><text fill="#2F241E" font-family="Arial" font-size="11" lengthAdjust="spacing" textLength="19.0083" x="822.6104" y="619.3901">yes</text><text fill="#2F241E" font-family="Arial" font-size="11" lengthAdjust="spacing" textLength="13.7017" x="948.3013" y="619.3901">no</text><rect fill="#FFF9EF" height="33.9688" rx="4" ry="4" style="stroke:#7D4434;stroke-width:0.5;" width="138.5586" x="717.9219" y="643.9844"/><text fill="#2F241E" font-family="Arial" font-size="12" lengthAdjust="spacing" textLength="118.5586" x="727.9219" y="665.123">Enter moving mode</text><rect fill="#FFF9EF" height="33.9688" rx="4" ry="4" style="stroke:#7D4434;stroke-width:0.5;" width="204.1367" x="685.1329" y="712.9531"/><text fill="#2F241E" font-family="Arial" font-size="12" lengthAdjust="spacing" textLength="184.1367" x="695.1329" y="734.0918">Move pointer to rotate camera</text><rect fill="#FFF9EF" height="33.9688" rx="4" ry="4" style="stroke:#7D4434;stroke-width:0.5;" width="150.3125" x="712.045" y="766.9219"/><text fill="#2F241E" font-family="Arial" font-size="12" lengthAdjust="spacing" textLength="130.3125" x="722.045" y="788.0605">Click a centred target</text><rect fill="#FFF9EF" height="33.9688" rx="4" ry="4" style="stroke:#7D4434;stroke-width:0.5;" width="186.8984" x="909.2696" y="643.9844"/><text fill="#2F241E" font-family="Arial" font-size="12" lengthAdjust="spacing" textLength="166.8984" x="919.2696" y="665.123">Remain in originating mode</text><ellipse cx="1002.7188" cy="723.9531" fill="none" rx="11" ry="11" style="stroke:#222222;stroke-width:1;"/><ellipse cx="1002.7188" cy="723.9531" fill="#222222" rx="6" ry="6" style="stroke:#222222;stroke-width:1;"/><polygon fill="#F3D6A6" points="720.7222,810.8906,732.7222,822.8906,720.7222,834.8906,708.7222,822.8906,720.7222,810.8906" style="stroke:#7D4434;stroke-width:0.5;stroke-linejoin:miter;stroke-miterlimit:10;"/><path d="M839.5264,844.8906 L839.5264,900.2891 L1079.2349,900.2891 L1079.2349,854.8906 L1069.2349,844.8906 L839.5264,844.8906" fill="#FFF2D9" style="stroke:#B66A45;stroke-width:0.5;"/><path d="M1069.2349,844.8906 L1069.2349,854.8906 L1079.2349,854.8906 L1069.2349,844.8906" fill="#FFF2D9" style="stroke:#B66A45;stroke-width:0.5;"/><text fill="#3C2B22" font-family="Arial" font-size="13" lengthAdjust="spacing" textLength="218.7085" x="845.5264" y="861.9575">Filters and table serials exist only</text><text fill="#3C2B22" font-family="Arial" font-size="13" lengthAdjust="spacing" textLength="210.0884" x="845.5264" y="877.0903">in the Library React component.</text><text fill="#3C2B22" font-family="Arial" font-size="13" lengthAdjust="spacing" textLength="165.4326" x="845.5264" y="892.2231">Reloading discards them.</text><polygon fill="#F3D6A6" points="613.918,900.2891,827.5264,900.2891,839.5264,912.2891,827.5264,924.2891,613.918,924.2891,601.918,912.2891,613.918,900.2891" style="stroke:#7D4434;stroke-width:0.5;stroke-linejoin:miter;stroke-miterlimit:10;"/><text fill="#2F241E" font-family="Arial" font-size="11" lengthAdjust="spacing" textLength="213.6084" x="613.918" y="916.0972">Matching shelf or table book targeted?</text><text fill="#2F241E" font-family="Arial" font-size="11" lengthAdjust="spacing" textLength="19.0083" x="582.9097" y="909.6948">yes</text><text fill="#2F241E" font-family="Arial" font-size="11" lengthAdjust="spacing" textLength="13.7017" x="839.5264" y="909.6948">no</text><rect fill="#FFF9EF" height="33.9688" rx="4" ry="4" style="stroke:#7D4434;stroke-width:0.5;" width="244.8418" x="310.9264" y="934.2891"/><text fill="#2F241E" font-family="Arial" font-size="12" lengthAdjust="spacing" textLength="224.8418" x="320.9264" y="955.4277">Open details and release pointer lock</text><rect fill="#FFF9EF" height="33.9688" rx="4" ry="4" style="stroke:#7D4434;stroke-width:0.5;" width="219.9336" x="323.3805" y="988.2578"/><text fill="#2F241E" font-family="Arial" font-size="12" lengthAdjust="spacing" textLength="199.9336" x="333.3805" y="1009.3965">Navigate within selected location</text><polygon fill="#F3D6A6" points="387.0511,1042.2266,479.6434,1042.2266,491.6434,1054.2266,479.6434,1066.2266,387.0511,1066.2266,375.0511,1054.2266,387.0511,1042.2266" style="stroke:#7D4434;stroke-width:0.5;stroke-linejoin:miter;stroke-miterlimit:10;"/><text fill="#2F241E" font-family="Arial" font-size="11" lengthAdjust="spacing" textLength="92.5923" x="387.0511" y="1058.0347">Book is on shelf?</text><text fill="#2F241E" font-family="Arial" font-size="11" lengthAdjust="spacing" textLength="19.0083" x="356.0428" y="1051.6323">yes</text><text fill="#2F241E" font-family="Arial" font-size="11" lengthAdjust="spacing" textLength="27.8599" x="491.6434" y="1051.6323">table</text><polygon fill="#F3D6A6" points="120.0645,1076.2266,288.561,1076.2266,300.561,1088.2266,288.561,1100.2266,120.0645,1100.2266,108.0645,1088.2266,120.0645,1076.2266" style="stroke:#7D4434;stroke-width:0.5;stroke-linejoin:miter;stroke-miterlimit:10;"/><text fill="#2F241E" font-family="Arial" font-size="11" lengthAdjust="spacing" textLength="168.4966" x="120.0645" y="1092.0347">Table has fewer than 5 books?</text><text fill="#2F241E" font-family="Arial" font-size="11" lengthAdjust="spacing" textLength="19.0083" x="89.0562" y="1085.6323">yes</text><text fill="#2F241E" font-family="Arial" font-size="11" lengthAdjust="spacing" textLength="13.7017" x="300.561" y="1085.6323">no</text><rect fill="#FFF9EF" height="33.9688" rx="4" ry="4" style="stroke:#7D4434;stroke-width:0.5;" width="164.1289" x="16" y="1110.2266"/><text fill="#2F241E" font-family="Arial" font-size="12" lengthAdjust="spacing" textLength="144.1289" x="26" y="1131.3652">Add serial to table state</text><rect fill="#FFF9EF" height="33.9688" rx="4" ry="4" style="stroke:#7D4434;stroke-width:0.5;" width="103.7715" x="46.1787" y="1164.1953"/><text fill="#2F241E" font-family="Arial" font-size="12" lengthAdjust="spacing" textLength="83.7715" x="56.1787" y="1185.334">Resume room</text><rect fill="#FFF9EF" height="33.9688" rx="4" ry="4" style="stroke:#7D4434;stroke-width:0.5;" width="190.8828" x="215.1196" y="1110.2266"/><text fill="#2F241E" font-family="Arial" font-size="12" lengthAdjust="spacing" textLength="170.8828" x="225.1196" y="1131.3652">Add action remains disabled</text><polygon fill="#F3D6A6" points="204.3127,1204.1641,216.3127,1216.1641,204.3127,1228.1641,192.3127,1216.1641,204.3127,1204.1641" style="stroke:#7D4434;stroke-width:0.5;stroke-linejoin:miter;stroke-miterlimit:10;"/><polygon fill="#F3D6A6" points="600.7485,1076.2266,724.0151,1076.2266,736.0151,1088.2266,724.0151,1100.2266,600.7485,1100.2266,588.7485,1088.2266,600.7485,1076.2266" style="stroke:#7D4434;stroke-width:0.5;stroke-linejoin:miter;stroke-miterlimit:10;"/><text fill="#2F241E" font-family="Arial" font-size="11" lengthAdjust="spacing" textLength="123.2666" x="600.7485" y="1092.0347">Return selected book?</text><text fill="#2F241E" font-family="Arial" font-size="11" lengthAdjust="spacing" textLength="19.0083" x="569.7402" y="1085.6323">yes</text><text fill="#2F241E" font-family="Arial" font-size="11" lengthAdjust="spacing" textLength="71.7471" x="736.0151" y="1085.6323">Borrow stack</text><rect fill="#FFF9EF" height="33.9688" rx="4" ry="4" style="stroke:#7D4434;stroke-width:0.5;" width="206.0645" x="446.0024" y="1110.2266"/><text fill="#2F241E" font-family="Arial" font-size="12" lengthAdjust="spacing" textLength="186.0645" x="456.0024" y="1131.3652">Remove serial from table state</text><rect fill="#FFF9EF" height="33.9688" rx="4" ry="4" style="stroke:#7D4434;stroke-width:0.5;" width="103.7715" x="497.1489" y="1164.1953"/><text fill="#2F241E" font-family="Arial" font-size="12" lengthAdjust="spacing" textLength="83.7715" x="507.1489" y="1185.334">Resume room</text><rect fill="#FFF9EF" height="33.9688" rx="4" ry="4" style="stroke:#7D4434;stroke-width:0.5;" width="207.3242" x="672.0669" y="1110.2266"/><text fill="#2F241E" font-family="Arial" font-size="12" lengthAdjust="spacing" textLength="187.3242" x="682.0669" y="1131.3652">Display bundled NLB QR image</text><rect fill="#FFF9EF" height="33.9688" rx="4" ry="4" style="stroke:#7D4434;stroke-width:0.5;" width="178.1152" x="686.6714" y="1164.1953"/><text fill="#2F241E" font-family="Arial" font-size="12" lengthAdjust="spacing" textLength="158.1152" x="696.6714" y="1185.334">Back enters resume mode</text><polygon fill="#F3D6A6" points="662.3818,1204.1641,674.3818,1216.1641,662.3818,1228.1641,650.3818,1216.1641,662.3818,1204.1641" style="stroke:#7D4434;stroke-width:0.5;stroke-linejoin:miter;stroke-miterlimit:10;"/><polygon fill="#F3D6A6" points="433.3473,1234.1641,445.3473,1246.1641,433.3473,1258.1641,421.3473,1246.1641,433.3473,1234.1641" style="stroke:#7D4434;stroke-width:0.5;stroke-linejoin:miter;stroke-miterlimit:10;"/><rect fill="#FFF9EF" height="33.9688" rx="4" ry="4" style="stroke:#7D4434;stroke-width:0.5;" width="177.4121" x="919.3911" y="934.2891"/><text fill="#2F241E" font-family="Arial" font-size="12" lengthAdjust="spacing" textLength="157.4121" x="929.3911" y="955.4277">Continue looking or pause</text><polygon fill="#F3D6A6" points="720.7222,1264.1641,732.7222,1276.1641,720.7222,1288.1641,708.7222,1276.1641,720.7222,1264.1641" style="stroke:#7D4434;stroke-width:0.5;stroke-linejoin:miter;stroke-miterlimit:10;"/><ellipse cx="720.7222" cy="1319.1641" fill="none" rx="11" ry="11" style="stroke:#222222;stroke-width:1;"/><ellipse cx="720.7222" cy="1319.1641" fill="#222222" rx="6" ry="6" style="stroke:#222222;stroke-width:1;"/><line style="stroke:#7D4434;stroke-width:1.2;" x1="720.7222" x2="720.7222" y1="72.2969" y2="92.2969"/><polygon fill="#7D4434" points="716.7222,82.2969,720.7222,92.2969,724.7222,82.2969,720.7222,86.2969" style="stroke:#7D4434;stroke-width:1;stroke-linejoin:miter;stroke-miterlimit:10;"/><line style="stroke:#7D4434;stroke-width:1.2;" x1="720.7222" x2="720.7222" y1="126.2656" y2="146.2656"/><polygon fill="#7D4434" points="716.7222,136.2656,720.7222,146.2656,724.7222,136.2656,720.7222,140.2656" style="stroke:#7D4434;stroke-width:1;stroke-linejoin:miter;stroke-miterlimit:10;"/><line style="stroke:#7D4434;stroke-width:1.2;" x1="720.7222" x2="720.7222" y1="194.2031" y2="214.2031"/><polygon fill="#7D4434" points="716.7222,204.2031,720.7222,214.2031,724.7222,204.2031,720.7222,208.2031" style="stroke:#7D4434;stroke-width:1;stroke-linejoin:miter;stroke-miterlimit:10;"/><line style="stroke:#7D4434;stroke-width:1.2;" x1="615.7415" x2="615.7415" y1="350.1094" y2="370.1094"/><polygon fill="#7D4434" points="611.7415,360.1094,615.7415,370.1094,619.7415,360.1094,615.7415,364.1094" style="stroke:#7D4434;stroke-width:1;stroke-linejoin:miter;stroke-miterlimit:10;"/><line style="stroke:#7D4434;stroke-width:1.2;" x1="625.7415" x2="615.7415" y1="280.1719" y2="280.1719"/><line style="stroke:#7D4434;stroke-width:1.2;" x1="615.7415" x2="615.7415" y1="280.1719" y2="302.1719"/><polygon fill="#7D4434" points="611.7415,292.1719,615.7415,302.1719,619.7415,292.1719,615.7415,296.1719" style="stroke:#7D4434;stroke-width:1;stroke-linejoin:miter;stroke-miterlimit:10;"/><line style="stroke:#7D4434;stroke-width:1.2;" x1="815.7029" x2="825.7029" y1="280.1719" y2="280.1719"/><line style="stroke:#7D4434;stroke-width:1.2;" x1="825.7029" x2="825.7029" y1="280.1719" y2="302.1719"/><polygon fill="#7D4434" points="821.7029,292.1719,825.7029,302.1719,829.7029,292.1719,825.7029,296.1719" style="stroke:#7D4434;stroke-width:1;stroke-linejoin:miter;stroke-miterlimit:10;"/><line style="stroke:#7D4434;stroke-width:1.2;" x1="615.7415" x2="615.7415" y1="418.0469" y2="436.0469"/><line style="stroke:#7D4434;stroke-width:1.2;" x1="615.7415" x2="708.7222" y1="436.0469" y2="436.0469"/><polygon fill="#7D4434" points="698.7222,432.0469,708.7222,436.0469,698.7222,440.0469,702.7222,436.0469" style="stroke:#7D4434;stroke-width:1;stroke-linejoin:miter;stroke-miterlimit:10;"/><line style="stroke:#7D4434;stroke-width:1.2;" x1="825.7029" x2="825.7029" y1="336.1406" y2="436.0469"/><line style="stroke:#7D4434;stroke-width:1.2;" x1="825.7029" x2="732.7222" y1="436.0469" y2="436.0469"/><polygon fill="#7D4434" points="742.7222,432.0469,732.7222,436.0469,742.7222,440.0469,738.7222,436.0469" style="stroke:#7D4434;stroke-width:1;stroke-linejoin:miter;stroke-miterlimit:10;"/><line style="stroke:#7D4434;stroke-width:1.2;" x1="720.7222" x2="720.7222" y1="248.1719" y2="268.1719"/><polygon fill="#7D4434" points="716.7222,258.1719,720.7222,268.1719,724.7222,258.1719,720.7222,262.1719" style="stroke:#7D4434;stroke-width:1;stroke-linejoin:miter;stroke-miterlimit:10;"/><line style="stroke:#7D4434;stroke-width:1.2;" x1="720.7222" x2="720.7222" y1="448.0469" y2="468.0469"/><polygon fill="#7D4434" points="716.7222,458.0469,720.7222,468.0469,724.7222,458.0469,720.7222,462.0469" style="stroke:#7D4434;stroke-width:1;stroke-linejoin:miter;stroke-miterlimit:10;"/><line style="stroke:#7D4434;stroke-width:1.2;" x1="546.4844" x2="546.4844" y1="589.9844" y2="609.9844"/><polygon fill="#7D4434" points="542.4844,599.9844,546.4844,609.9844,550.4844,599.9844,546.4844,603.9844" style="stroke:#7D4434;stroke-width:1;stroke-linejoin:miter;stroke-miterlimit:10;"/><line style="stroke:#7D4434;stroke-width:1.2;" x1="546.4844" x2="546.4844" y1="643.9531" y2="678.9531"/><polygon fill="#7D4434" points="542.4844,668.9531,546.4844,678.9531,550.4844,668.9531,546.4844,672.9531" style="stroke:#7D4434;stroke-width:1;stroke-linejoin:miter;stroke-miterlimit:10;"/><line style="stroke:#7D4434;stroke-width:1.2;" x1="787.2012" x2="787.2012" y1="677.9531" y2="712.9531"/><polygon fill="#7D4434" points="783.2012,702.9531,787.2012,712.9531,791.2012,702.9531,787.2012,706.9531" style="stroke:#7D4434;stroke-width:1;stroke-linejoin:miter;stroke-miterlimit:10;"/><line style="stroke:#7D4434;stroke-width:1.2;" x1="787.2012" x2="787.2012" y1="746.9219" y2="766.9219"/><polygon fill="#7D4434" points="783.2012,756.9219,787.2012,766.9219,791.2012,756.9219,787.2012,760.9219" style="stroke:#7D4434;stroke-width:1;stroke-linejoin:miter;stroke-miterlimit:10;"/><line style="stroke:#7D4434;stroke-width:1.2;" x1="1002.7188" x2="1002.7188" y1="677.9531" y2="712.9531"/><polygon fill="#7D4434" points="998.7188,702.9531,1002.7188,712.9531,1006.7188,702.9531,1002.7188,706.9531" style="stroke:#7D4434;stroke-width:1;stroke-linejoin:miter;stroke-miterlimit:10;"/><line style="stroke:#7D4434;stroke-width:1.2;" x1="841.6187" x2="787.2012" y1="621.9844" y2="621.9844"/><line style="stroke:#7D4434;stroke-width:1.2;" x1="787.2012" x2="787.2012" y1="621.9844" y2="643.9844"/><polygon fill="#7D4434" points="783.2012,633.9844,787.2012,643.9844,791.2012,633.9844,787.2012,637.9844" style="stroke:#7D4434;stroke-width:1;stroke-linejoin:miter;stroke-miterlimit:10;"/><line style="stroke:#7D4434;stroke-width:1.2;" x1="948.3013" x2="1002.7188" y1="621.9844" y2="621.9844"/><line style="stroke:#7D4434;stroke-width:1.2;" x1="1002.7188" x2="1002.7188" y1="621.9844" y2="643.9844"/><polygon fill="#7D4434" points="998.7188,633.9844,1002.7188,643.9844,1006.7188,633.9844,1002.7188,637.9844" style="stroke:#7D4434;stroke-width:1;stroke-linejoin:miter;stroke-miterlimit:10;"/><line style="stroke:#7D4434;stroke-width:1.2;" x1="787.2012" x2="787.2012" y1="800.8906" y2="822.8906"/><line style="stroke:#7D4434;stroke-width:1.2;" x1="787.2012" x2="732.7222" y1="822.8906" y2="822.8906"/><polygon fill="#7D4434" points="742.7222,818.8906,732.7222,822.8906,742.7222,826.8906,738.7222,822.8906" style="stroke:#7D4434;stroke-width:1;stroke-linejoin:miter;stroke-miterlimit:10;"/><line style="stroke:#7D4434;stroke-width:1.2;" x1="894.96" x2="894.96" y1="589.9844" y2="609.9844"/><polygon fill="#7D4434" points="890.96,599.9844,894.96,609.9844,898.96,599.9844,894.96,603.9844" style="stroke:#7D4434;stroke-width:1;stroke-linejoin:miter;stroke-miterlimit:10;"/><line style="stroke:#7D4434;stroke-width:1.2;" x1="665.2969" x2="546.4844" y1="534.0156" y2="534.0156"/><line style="stroke:#7D4434;stroke-width:1.2;" x1="546.4844" x2="546.4844" y1="534.0156" y2="556.0156"/><polygon fill="#7D4434" points="542.4844,546.0156,546.4844,556.0156,550.4844,546.0156,546.4844,550.0156" style="stroke:#7D4434;stroke-width:1;stroke-linejoin:miter;stroke-miterlimit:10;"/><line style="stroke:#7D4434;stroke-width:1.2;" x1="776.1475" x2="894.96" y1="534.0156" y2="534.0156"/><line style="stroke:#7D4434;stroke-width:1.2;" x1="894.96" x2="894.96" y1="534.0156" y2="556.0156"/><polygon fill="#7D4434" points="890.96,546.0156,894.96,556.0156,898.96,546.0156,894.96,550.0156" style="stroke:#7D4434;stroke-width:1;stroke-linejoin:miter;stroke-miterlimit:10;"/><line style="stroke:#7D4434;stroke-width:1.2;" x1="546.4844" x2="546.4844" y1="712.9219" y2="822.8906"/><line style="stroke:#7D4434;stroke-width:1.2;" x1="546.4844" x2="708.7222" y1="822.8906" y2="822.8906"/><polygon fill="#7D4434" points="698.7222,818.8906,708.7222,822.8906,698.7222,826.8906,702.7222,822.8906" style="stroke:#7D4434;stroke-width:1;stroke-linejoin:miter;stroke-miterlimit:10;"/><line style="stroke:#7D4434;stroke-width:1.2;" x1="720.7222" x2="720.7222" y1="502.0156" y2="522.0156"/><polygon fill="#7D4434" points="716.7222,512.0156,720.7222,522.0156,724.7222,512.0156,720.7222,516.0156" style="stroke:#7D4434;stroke-width:1;stroke-linejoin:miter;stroke-miterlimit:10;"/><line style="stroke:#7D4434;stroke-width:1.2;" x1="433.3473" x2="433.3473" y1="968.2578" y2="988.2578"/><polygon fill="#7D4434" points="429.3473,978.2578,433.3473,988.2578,437.3473,978.2578,433.3473,982.2578" style="stroke:#7D4434;stroke-width:1;stroke-linejoin:miter;stroke-miterlimit:10;"/><line style="stroke:#7D4434;stroke-width:1.2;" x1="98.0645" x2="98.0645" y1="1144.1953" y2="1164.1953"/><polygon fill="#7D4434" points="94.0645,1154.1953,98.0645,1164.1953,102.0645,1154.1953,98.0645,1158.1953" style="stroke:#7D4434;stroke-width:1;stroke-linejoin:miter;stroke-miterlimit:10;"/><line style="stroke:#7D4434;stroke-width:1.2;" x1="108.0645" x2="98.0645" y1="1088.2266" y2="1088.2266"/><line style="stroke:#7D4434;stroke-width:1.2;" x1="98.0645" x2="98.0645" y1="1088.2266" y2="1110.2266"/><polygon fill="#7D4434" points="94.0645,1100.2266,98.0645,1110.2266,102.0645,1100.2266,98.0645,1104.2266" style="stroke:#7D4434;stroke-width:1;stroke-linejoin:miter;stroke-miterlimit:10;"/><line style="stroke:#7D4434;stroke-width:1.2;" x1="300.561" x2="310.561" y1="1088.2266" y2="1088.2266"/><line style="stroke:#7D4434;stroke-width:1.2;" x1="310.561" x2="310.561" y1="1088.2266" y2="1110.2266"/><polygon fill="#7D4434" points="306.561,1100.2266,310.561,1110.2266,314.561,1100.2266,310.561,1104.2266" style="stroke:#7D4434;stroke-width:1;stroke-linejoin:miter;stroke-miterlimit:10;"/><line style="stroke:#7D4434;stroke-width:1.2;" x1="98.0645" x2="98.0645" y1="1198.1641" y2="1216.1641"/><line style="stroke:#7D4434;stroke-width:1.2;" x1="98.0645" x2="192.3127" y1="1216.1641" y2="1216.1641"/><polygon fill="#7D4434" points="182.3127,1212.1641,192.3127,1216.1641,182.3127,1220.1641,186.3127,1216.1641" style="stroke:#7D4434;stroke-width:1;stroke-linejoin:miter;stroke-miterlimit:10;"/><line style="stroke:#7D4434;stroke-width:1.2;" x1="310.561" x2="310.561" y1="1144.1953" y2="1216.1641"/><line style="stroke:#7D4434;stroke-width:1.2;" x1="310.561" x2="216.3127" y1="1216.1641" y2="1216.1641"/><polygon fill="#7D4434" points="226.3127,1212.1641,216.3127,1216.1641,226.3127,1220.1641,222.3127,1216.1641" style="stroke:#7D4434;stroke-width:1;stroke-linejoin:miter;stroke-miterlimit:10;"/><line style="stroke:#7D4434;stroke-width:1.2;" x1="549.0347" x2="549.0347" y1="1144.1953" y2="1164.1953"/><polygon fill="#7D4434" points="545.0347,1154.1953,549.0347,1164.1953,553.0347,1154.1953,549.0347,1158.1953" style="stroke:#7D4434;stroke-width:1;stroke-linejoin:miter;stroke-miterlimit:10;"/><line style="stroke:#7D4434;stroke-width:1.2;" x1="775.729" x2="775.729" y1="1144.1953" y2="1164.1953"/><polygon fill="#7D4434" points="771.729,1154.1953,775.729,1164.1953,779.729,1154.1953,775.729,1158.1953" style="stroke:#7D4434;stroke-width:1;stroke-linejoin:miter;stroke-miterlimit:10;"/><line style="stroke:#7D4434;stroke-width:1.2;" x1="588.7485" x2="549.0347" y1="1088.2266" y2="1088.2266"/><line style="stroke:#7D4434;stroke-width:1.2;" x1="549.0347" x2="549.0347" y1="1088.2266" y2="1110.2266"/><polygon fill="#7D4434" points="545.0347,1100.2266,549.0347,1110.2266,553.0347,1100.2266,549.0347,1104.2266" style="stroke:#7D4434;stroke-width:1;stroke-linejoin:miter;stroke-miterlimit:10;"/><line style="stroke:#7D4434;stroke-width:1.2;" x1="736.0151" x2="775.729" y1="1088.2266" y2="1088.2266"/><line style="stroke:#7D4434;stroke-width:1.2;" x1="775.729" x2="775.729" y1="1088.2266" y2="1110.2266"/><polygon fill="#7D4434" points="771.729,1100.2266,775.729,1110.2266,779.729,1100.2266,775.729,1104.2266" style="stroke:#7D4434;stroke-width:1;stroke-linejoin:miter;stroke-miterlimit:10;"/><line style="stroke:#7D4434;stroke-width:1.2;" x1="549.0347" x2="549.0347" y1="1198.1641" y2="1216.1641"/><line style="stroke:#7D4434;stroke-width:1.2;" x1="549.0347" x2="650.3818" y1="1216.1641" y2="1216.1641"/><polygon fill="#7D4434" points="640.3818,1212.1641,650.3818,1216.1641,640.3818,1220.1641,644.3818,1216.1641" style="stroke:#7D4434;stroke-width:1;stroke-linejoin:miter;stroke-miterlimit:10;"/><line style="stroke:#7D4434;stroke-width:1.2;" x1="775.729" x2="775.729" y1="1198.1641" y2="1216.1641"/><line style="stroke:#7D4434;stroke-width:1.2;" x1="775.729" x2="674.3818" y1="1216.1641" y2="1216.1641"/><polygon fill="#7D4434" points="684.3818,1212.1641,674.3818,1216.1641,684.3818,1220.1641,680.3818,1216.1641" style="stroke:#7D4434;stroke-width:1;stroke-linejoin:miter;stroke-miterlimit:10;"/><line style="stroke:#7D4434;stroke-width:1.2;" x1="375.0511" x2="204.3127" y1="1054.2266" y2="1054.2266"/><line style="stroke:#7D4434;stroke-width:1.2;" x1="204.3127" x2="204.3127" y1="1054.2266" y2="1076.2266"/><polygon fill="#7D4434" points="200.3127,1066.2266,204.3127,1076.2266,208.3127,1066.2266,204.3127,1070.2266" style="stroke:#7D4434;stroke-width:1;stroke-linejoin:miter;stroke-miterlimit:10;"/><line style="stroke:#7D4434;stroke-width:1.2;" x1="491.6434" x2="662.3818" y1="1054.2266" y2="1054.2266"/><line style="stroke:#7D4434;stroke-width:1.2;" x1="662.3818" x2="662.3818" y1="1054.2266" y2="1076.2266"/><polygon fill="#7D4434" points="658.3818,1066.2266,662.3818,1076.2266,666.3818,1066.2266,662.3818,1070.2266" style="stroke:#7D4434;stroke-width:1;stroke-linejoin:miter;stroke-miterlimit:10;"/><line style="stroke:#7D4434;stroke-width:1.2;" x1="204.3127" x2="204.3127" y1="1228.1641" y2="1246.1641"/><line style="stroke:#7D4434;stroke-width:1.2;" x1="204.3127" x2="421.3473" y1="1246.1641" y2="1246.1641"/><polygon fill="#7D4434" points="411.3473,1242.1641,421.3473,1246.1641,411.3473,1250.1641,415.3473,1246.1641" style="stroke:#7D4434;stroke-width:1;stroke-linejoin:miter;stroke-miterlimit:10;"/><line style="stroke:#7D4434;stroke-width:1.2;" x1="662.3818" x2="662.3818" y1="1228.1641" y2="1246.1641"/><line style="stroke:#7D4434;stroke-width:1.2;" x1="662.3818" x2="445.3473" y1="1246.1641" y2="1246.1641"/><polygon fill="#7D4434" points="455.3473,1242.1641,445.3473,1246.1641,455.3473,1250.1641,451.3473,1246.1641" style="stroke:#7D4434;stroke-width:1;stroke-linejoin:miter;stroke-miterlimit:10;"/><line style="stroke:#7D4434;stroke-width:1.2;" x1="433.3473" x2="433.3473" y1="1022.2266" y2="1042.2266"/><polygon fill="#7D4434" points="429.3473,1032.2266,433.3473,1042.2266,437.3473,1032.2266,433.3473,1036.2266" style="stroke:#7D4434;stroke-width:1;stroke-linejoin:miter;stroke-miterlimit:10;"/><line style="stroke:#7D4434;stroke-width:1.2;" x1="601.918" x2="433.3473" y1="912.2891" y2="912.2891"/><line style="stroke:#7D4434;stroke-width:1.2;" x1="433.3473" x2="433.3473" y1="912.2891" y2="934.2891"/><polygon fill="#7D4434" points="429.3473,924.2891,433.3473,934.2891,437.3473,924.2891,433.3473,928.2891" style="stroke:#7D4434;stroke-width:1;stroke-linejoin:miter;stroke-miterlimit:10;"/><line style="stroke:#7D4434;stroke-width:1.2;" x1="839.5264" x2="1008.0972" y1="912.2891" y2="912.2891"/><line style="stroke:#7D4434;stroke-width:1.2;" x1="1008.0972" x2="1008.0972" y1="912.2891" y2="934.2891"/><polygon fill="#7D4434" points="1004.0972,924.2891,1008.0972,934.2891,1012.0972,924.2891,1008.0972,928.2891" style="stroke:#7D4434;stroke-width:1;stroke-linejoin:miter;stroke-miterlimit:10;"/><line style="stroke:#7D4434;stroke-width:1.2;" x1="433.3473" x2="433.3473" y1="1258.1641" y2="1276.1641"/><line style="stroke:#7D4434;stroke-width:1.2;" x1="433.3473" x2="708.7222" y1="1276.1641" y2="1276.1641"/><polygon fill="#7D4434" points="698.7222,1272.1641,708.7222,1276.1641,698.7222,1280.1641,702.7222,1276.1641" style="stroke:#7D4434;stroke-width:1;stroke-linejoin:miter;stroke-miterlimit:10;"/><line style="stroke:#7D4434;stroke-width:1.2;" x1="1008.0972" x2="1008.0972" y1="968.2578" y2="1276.1641"/><line style="stroke:#7D4434;stroke-width:1.2;" x1="1008.0972" x2="732.7222" y1="1276.1641" y2="1276.1641"/><polygon fill="#7D4434" points="742.7222,1272.1641,732.7222,1276.1641,742.7222,1280.1641,738.7222,1276.1641" style="stroke:#7D4434;stroke-width:1;stroke-linejoin:miter;stroke-miterlimit:10;"/><line style="stroke:#7D4434;stroke-width:1.2;" x1="720.7222" x2="720.7222" y1="834.8906" y2="900.2891"/><polygon fill="#7D4434" points="716.7222,890.2891,720.7222,900.2891,724.7222,890.2891,720.7222,894.2891" style="stroke:#7D4434;stroke-width:1;stroke-linejoin:miter;stroke-miterlimit:10;"/><line style="stroke:#7D4434;stroke-width:1.2;" x1="720.7222" x2="720.7222" y1="1288.1641" y2="1308.1641"/><polygon fill="#7D4434" points="716.7222,1298.1641,720.7222,1308.1641,724.7222,1298.1641,720.7222,1302.1641" style="stroke:#7D4434;stroke-width:1;stroke-linejoin:miter;stroke-miterlimit:10;"/><?plantuml-src bLLBRzj83BxhLt1FJO5jV2ZsOXyMjfC2HTqaw-PI840mrj0saNcemv4T_VibH_AZSGwxW07RuklZnu_K1xZTaSLGunWurIFJDACwEeTrfXX6ZTdWTUPNk9eV7px8iu_LXpU1-DfW8ltF8wQmSPH72rebaxe-GOhHBz6sDQO_OKqkYtlOW0aMibavXAtyT9Zul-MUnVXomjINMA9nn9bgDRwJnvfiHYknFJXJeyUG9Gwk7gUpnUtpxFx-s_Dy-Z2TVttyMM0r1o_OeciAiZyerAwr2CzvAwPhQhshganPyFyGP0lAS485Hhvsb3jOkxYlAiucvMfyts20CvOdrVW7fXqcSD5O1kCSA4g6TOeUxZ26fn2JnOGMLXsma64SXDQlC6dmDku7HXby57IA_lCDAEMJggArZ6yR8wDueRF5B6r9mLyjfkxlZo3T1BZgK5e467yfkO02h5BSIpdmw6FgeEKoigTG6yPF51W3axI8mEsAimvqeWc-8JPdRUo8IIOyUGg-pGWXXa_Uv7gBFAdG2Qoh44lXwJ6asCKQBAshQZnL8et4tXRO8rWYjnudVM_H94dIH5BZHJTzY8yxnLxe8U_HagHpNO5xaym6SXI-ijQeZSTaYkNHI1zG2rdAlOnlW_aDvYKAYPmFvMM6zOl6AhA5_1OH_6f9mjy2Um_Qf7_-FUwE_RmBJ7pcZZJv1JY0StW5e3SoIld4H1iA9lzUZNDiDAfGFH2kuB_h2DILHVvh2HxsL0SqLBjigXUtnMp8SH5QGeVcD9uZF-CxiwEDjhMdB7L4rheFqebuc7ulUXPrcu4OPA4Ab4iYrUjnE2AoDRXNskIUm5-zd2uZL6pM7bP9AEvxO-LvSl3eHJQiaJxvdTaXX-btFHMQ6Ionfh93HE7p45cAd20lCRVfh775-YvK6Q4gOa1RhiB_m3kBITPOVUkNOyeROhbl7QnQlReMxXOp-6Sfgo7N_PXm9X7zfM3fhoG_wUROMY-SyvsOno0YQr566LzKGYAUnhICnuqEKGOlSjncyVyotAxJkw3lb05VvPxBu5sdMWXA3Gnl5Ja1mZpKqJSnw2aNZoNg1TM2CeNQ93ccUgUljIfeoKh5_Yy0?></g></svg>